<?xml version="1.0" encoding="UTF-8"?><svg xmlns="http://www.w3.org/2000/svg" xmlns:xlink="http://www.w3.org/1999/xlink" height="502.8" id="Layer_1" preserveAspectRatio="xMidYMid meet" version="1.1" viewBox="-3.6 -2.8 467.6 502.8" width="467.6" x="0" xml:space="preserve" y="0" zoomAndPan="magnify"><g><g id="change1_1"><path d="M456.62018,252.67189c-2.95728-10.01758-8.80347-18.97852-16.09229-26.38574 c-6.02588-6.12378-12.86865-10.13843-20.94775-12.94336c-5.19385-1.80322-10.72192-2.78882-16.23071-3.39038 c4.479-16.92456,6.24609-34.80042,4.86646-53.05225c2.0835-0.69946,3.77539-2.35388,4.37939-4.55396 c0.46362-1.69458,0.23096-3.47656-0.65405-5.01904c-0.92505-1.61426-2.44116-2.77368-4.27222-3.26514l-0.9856-0.26453 c-6.62866-42.03321-29.07202-79.0785-63.32275-104.42103C308.75104,13.7682,266.24371,3.17725,223.66634,9.5359 c-36.60455,5.47144-69.48627,22.92542-94.26471,49.70312c-7.44702,1.50073-16.73291,4.63062-27.78418,9.36401 c1.53516-3.56873,2.06384-7.01172,2.24292-8.94531c4.10449,0.24133,9.67798-3.26685,12.53564-9.27417 c1.40894-2.95911,2.88025-8.29834,0.37085-15.21289c2.43018-2.84241,4.04993-6.42285,4.41748-10.42151 c0.94263-10.27966-6.6543-19.41223-16.93579-20.35657C99.04201,3.93165,94.1382,5.64784,90.4369,8.78248 c-0.2843-0.17126-0.55017-0.34082-0.84009-0.5127C71.61867-2.38061,55.16383-2.75317,42.00563,7.20655 C26.73646,18.76221,18.13551,43.07594,16.37135,62.65772c-5.52832,1.59131-10.05627,4.65967-12.93994,9.03552 c-6.98596,10.60559-2.93408,26.19446,8.78796,38.37732c-7.16394,25.06788-8.03381,53.7151,10.90393,77.16163 c12.7981,15.84448,28.08118,24.30713,45.42798,25.15356c0.92505,0.04541,1.84155,0.06812,2.75439,0.06812 c7.11206-0.00037,13.87695-1.34021,20.09106-3.39038c8.65259,33.7655,27.73914,62.70848,53.19751,83.82115 c-4.56372,6.65076-8.17578,13.922-10.35229,21.70264c-3.65759,13.07605-3.04407,27.66931,2.12939,40.25427 c5.31494,12.92957,13.48071,24.34375,24.29822,33.28394c4.99744,4.13013,10.25256,7.80933,15.76526,11.0249 c-0.99634,1.37598-2.00989,2.73999-3.03369,4.09692c-4.43848,5.65894-9.11108,11.12231-13.98328,16.40601 c-0.00891-0.00574-0.0177-0.01196-0.02661-0.01782c-5.76819-3.66479-11.87415-5.24805-17.24036-4.56567 c0.01709-0.33472,0.04846-0.68311,0.0791-1.00781c0.04431-0.46948,0.08105-0.93115,0.09326-1.37219 c0.04089-0.28052,0.06055-0.45642,0.06396-0.49377c0.02002-0.2002-0.00842-0.3927-0.07043-0.5708 c-0.34692-30.08472-19.50708-46.31396-37.55579-46.31396c-8.81592,0-17.19812,2.85242-24.25635,8.25806l-0.23792,0.17847 c-0.94324,0.73389-1.78918,1.4873-2.58154,2.25452c-0.99817,0.64124-1.94324,1.36548-2.81714,2.18225h0.00183 c-1.08594,1.01514-2.03369,2.27673-2.84839,3.72168c-0.53394,0.41211-1.0564,0.84155-1.55347,1.30615h0.00171 c-6.58447,6.1543-8.41724,20.79724-4.00488,31.97412c1.33618,3.38574,3.62537,7.7124,6.04932,12.29431 c3.87891,7.32947,8.27368,15.63635,10.26733,22.77698c7.896,28.27173,15.49658,40.14978,20.48242,45.13574 c1.86108,1.86182,5.12537,2.88245,8.50818,3.4458c2.68921,0.72095,5.71729,1.08887,8.94177,1.08887 c0.59937,0,1.20898-0.02026,1.8208-0.04565c0.79077,0.07056,1.59399,0.11743,2.42188,0.11743 c1.51953,0,3.65454-0.50427,5.85474-1.18823c2.73999-0.58459,5.50696-1.38965,8.23047-2.44763 c13.18774-5.12268,19.6062-13.01599,22.68628-20.13794c4.2124-2.75818,8.00867-7.01465,10.67993-12.13171 c2.58154-4.94775,3.88049-10.21008,3.86401-15.39868c11.34485-11.56372,21.59143-24.03149,30.69073-37.26807 c7.03223,1.65405,14.18018,2.54724,21.35938,2.71533c1.06348,2.28442,2.34106,4.4137,3.8186,6.34595 c-6.15796,0.71558-12.05762,3.52466-16.98071,8.16357c-6.40942,6.0387-10.38989,14.49268-10.38989,22.05811 c0,7.03442,1.05225,12.67065,3.18652,17.04956c-0.17969,4.58289,0.52612,10.68506,4.65552,14.81433 c7.35034,7.34851,18.27173,8.78613,34.65308,8.78613c18.28246,0,50.23021-3.41199,58.79955-26.25891 c2.11963-5.65039,1.75757-11.54578,1.37451-17.78906c-0.37427-6.0896-0.76074-12.38525,1.37305-18.44165 c8.73462-24.77197-4.99292-48.04077-13.12769-54.4646c-6.60498-6.83862-15.63159-11.33362-25.55151-11.86536 c-4.34399-0.22949-8.59302,0.255-12.63257,1.38611c-2.08983-0.68823-4.27855-1.05554-6.53294-1.05554 c-10.41333,0-19.43481,7.80945-23.71558,19.1134c-0.83081-0.03979-1.66138-0.08813-2.49146-0.15125 c5.86841-11.27234,11.00293-22.95715,15.36499-34.99243c2.00073-5.52014,3.81396-11.10486,5.4646-16.73743 c0.60107,0.00684,1.20068,0.02063,1.80273,0.02063c7.89258,0,15.89183-0.58411,23.92943-1.78381 c53.67896-8.02441,97.25562-41.80835,120.05786-86.91551c3.31787,0.0415,6.63037,0.24805,9.92847,0.60974 c3.51343,0.58704,6.98169,1.41345,10.33252,2.62292c1.22852,0.60083,2.42114,1.26514,3.56689,2.01025 c2.03662,1.78223,3.91284,3.76709,5.64673,5.84961c1.51025,2.12695,2.85229,4.35252,3.99561,6.69566 c0.6145,1.74255,1.11572,3.51501,1.48145,5.32458c0.14185,1.94592,0.15503,3.89001,0.01489,5.83325 c-0.55225,2.96033-1.38672,5.84546-2.45557,8.66187c-2.12134,4.49927-4.74951,8.72974-7.69434,12.74048 c-2.50879,3.10974-5.1853,6.07715-7.99756,8.91309c-12.22632-5.09521-24.04395-4.97461-29.34766-0.20496 c-2.66895,2.39758-5.68555,7.82263-5.41113,15.22009c0.00806,0.21606,0.01978,0.4364,0.03369,0.65918 c-31.66895,0.97791-44.96558,28.72217-47.40967,34.5415c-1.27832,3.04297-3.16528,5.83423-5.61035,8.29651 c-2.10034,2.11438-3.12695,4.51904-3.05347,7.14404c0.12085,4.27234,3.17236,7.80847,4.37402,9.03796 c-0.43555,9.75513,1.94116,17.35376,7.0686,22.59155c6.3396,6.47412,14.86182,7.26819,17.59863,7.35034 c7.03394,13.21252,20.9126,11.42163,25.19727,10.50354c0.69971,1.7804,2.41357,4.97717,6.1875,7.11951 c2.51123,1.42529,5.47217,2.13892,8.85962,2.13892c3.29492,0,6.99365-0.67505,11.07373-2.02344 c21.58276-7.13184,24.30493-60.51624,24.51489-65.58936c0.76025,0.05884,1.51099,0.09875,2.24048,0.09875 c5.88672,0,10.72925-1.90979,13.84375-5.65747c6.00879-7.23303,3.70117-19.66589-4.72095-31.1532 C450.8858,302.43237,464.07233,277.91431,456.62018,252.67189z M105.24464,92.05054l0.50269,0.13477 c-0.2207,0.4054-0.44824,0.80786-0.66528,1.21472C105.13893,92.91163,105.19276,92.469,105.24464,92.05054z M96.11476,96.27491 c0.18604-2.16479,0.60278-4.40503,1.10083-6.42188c0.22974,0.08936,0.46411,0.16968,0.70569,0.23462l4.69397,1.25806 c-0.26855,2.0752-0.62158,5.13892-0.91821,8.78223c-2.59082,5.45996-4.854,11.04517-6.80054,16.72754 C95.01149,109.14918,95.63014,101.91236,96.11476,96.27491z M117.93153,73.0713c-1.73328,2.34265-3.39172,4.72437-4.98694,7.13696 l-7.26904-1.94849c4.49219-3.20972,9.06238-5.57202,13.68604-7.07275C118.8838,71.81397,118.40138,72.43629,117.93153,73.0713z M69.8401,183.76247c-8.91724-0.47046-16.90771-5.22388-24.42603-14.53296c-8.8866-11.00342-11.38159-25.77954-7.49255-44.06226 c4.56262,1.1687,9.13647,1.72546,13.46838,1.72461c10.02075,0,18.74585-2.94324,23.02515-7.97632 c3.04126-3.57471,6.04932-11.05444,4.51904-20.36353c-0.19434-1.1814-0.47485-2.4436-0.85889-3.76721 c6.36304-4.80945,8.78345-11.81238,9.46313-14.2738c0.44312-0.09741,0.87256-0.2074,1.29199-0.32642 c-2.8855,6.85547-4.3031,14.97949-4.31396,15.09351c-0.03662,0.41797-0.11182,1.07202-0.21155,1.93433 c-2.54211,22.00806-1.52625,39.84888,3.00867,53.34315c-1.10645,9.78137-1.31885,19.70862-0.60193,29.68384 C81.4081,182.52919,75.58913,184.05739,69.8401,183.76247z M204.57161,349.75024 c-3.2934,7.58179-6.93512,14.99841-10.91608,22.22559c-3.34033-1.87695-6.56787-3.94971-9.66162-6.22241 c-4.11182-3.35938-7.90857-7.07568-11.28186-11.17627c-2.23486-3.1062-4.19812-6.38745-5.83826-9.84253 c-1.11658-2.95557-1.97302-5.98877-2.54126-9.09497c-0.22791-2.7356-0.21826-5.47534,0.01965-8.21179 c0.55066-2.92871,1.36047-5.79199,2.40613-8.58435c1.31006-2.76758,2.83582-5.41504,4.52808-7.96021 c13.02625,7.01367,27.05908,12.26514,41.73517,15.49536C210.54768,334.28613,207.7364,342.08545,204.57161,349.75024z" fill="#ffce31"/></g><g id="change2_1"><path d="M292.29239,374.8259c-0.32837-0.30444-0.65979-0.60522-0.9989-0.89758 c-5.84155-5.03772-13.25525-8.27332-21.30212-8.70447c-2.86548-0.15991-5.68726,0.0249-8.42993,0.51587 c7.57251,4.29297,13.2854,13.03638,15.12915,23.64258c0.09668,0.55579,0.18262,1.11646,0.25769,1.68201 c0.07678,0.578,0.14221,1.16064,0.1958,1.74817c0.11902,1.30469,0.18713,2.62915,0.18713,3.97437 c0,16.26794-8.78223,29.97778-21.05518,33.17554c1.14185,1.12744,2.35913,2.38989,3.6665,3.81775l-0.9917,0.90759l-0.00024,0.00024 l-0.99133,0.90747c-1.15247-1.25916-2.22545-2.37866-3.23424-3.38745c-1.31323-1.31323-2.51367-2.43188-3.60962-3.37646 c-1.4231-0.51074-3.1626-1.08459-4.9668-1.65698c-0.37744-0.11987-0.7561-0.23877-1.13623-0.35767 c-0.47852-0.14954-0.95459-0.29736-1.42896-0.44336c-0.48438-0.14917-0.96228-0.29553-1.43237-0.43848 c-2.29443-0.69727-4.36084-1.30579-5.59937-1.67041l-1.46899-0.43359l-0.2395-0.23962 c-0.18701-0.1864-0.36353-0.38464-0.54578-0.57629c-6.30078,0.27246-12.32971,2.91431-17.29248,7.59082 c-5.88831,5.5509-9.547,13.25269-9.547,20.10474c0,4.31006,0.40771,8.0354,1.22852,11.21631 c0.25439,0.98572,0.55151,1.91504,0.88599,2.79663c0.33374,0.88013,0.70874,1.70776,1.12292,2.48596 c0.8468,1.59119,1.85608,2.97961,3.04272,4.15833c6.83801,6.79614,19.17432,6.71045,33.46057,6.61426 c1.75244-0.01233,3.53613-0.02454,5.34448-0.02454c17.62828,0,33.95897-5.8761,41.6013-14.96838 c3.69531-4.39648,5.11548-9.23218,4.21655-14.37195c-1.67712-9.61169,0.74316-20.48413,2.87683-30.07654 c1.44629-6.49341,2.81042-12.62488,2.77722-17.60034c-0.0614-9.3689-3.9259-18.06592-10.11133-24.53784 C293.38443,375.8591,292.84354,375.33701,292.29239,374.8259z M217.10295,458.2009 c-0.13123,0.03857-0.26245,0.05774-0.39185,0.05774c-0.37964,0-0.73071-0.17383-0.9834-0.45056 c-0.13013-0.14258-0.24194-0.30396-0.302-0.50073c-0.00647-0.02161-0.10034-0.34778-0.21924-0.90308 c-0.09045-0.42188-0.19458-0.97742-0.28821-1.64893c-0.67297-4.82251-0.74609-15.41919,9.62952-22.39868 c0.61902-0.41626,1.45312-0.25024,1.86426,0.36365c0.41431,0.6156,0.25171,1.44983-0.36377,1.86438 c-7.83325,5.26929-8.91223,12.85779-8.69055,17.58887c0.03088,0.6582,0.08594,1.25903,0.15247,1.7926 c0.08447,0.67688,0.18457,1.24182,0.27295,1.66687c0.11414,0.54907,0.20728,0.87061,0.21338,0.89075 C218.21159,457.23386,217.81291,457.9841,217.10295,458.2009z M161.35136,455.32431 c0.27112,2.46155,0.42517,5.05347,0.42517,7.79968c0,4.23022-0.78687,7.94336-2.09009,11.19385 c-0.28796,0.71851-0.60742,1.40796-0.94287,2.08179c-0.33521,0.67261-0.68652,1.32922-1.06348,1.9585 c-4.15613,6.94019-10.67236,11.27441-15.677,13.76257c0.83044-2.86389,1.60449-8.3241-0.25171-16.849 c-0.18286-0.83911-0.39307-1.70935-0.62952-2.60828c-0.30334-1.15393-0.6488-2.35217-1.04993-3.60657 c-1.62-5.06543-4.09058-10.96313-7.73462-17.7439c-0.8053-1.49854-1.65369-3.02905-2.57837-4.61511 c-0.61719-1.05823-1.25732-2.13318-1.93043-3.23096c-0.70117-1.14392-1.43262-2.30872-2.19702-3.49585 c-4.69385-7.28748-4.57495-13.60071-4.43677-20.91089c0.14868-7.88562,0.31824-16.82214-5.23779-29.08679 c-3.92798-8.66895-11.83618-14.95435-21.15405-16.81152c-2.86523-0.57275-5.68115-0.67017-8.34814-0.31885 c5.57495-3.17871,11.81445-4.84546,18.30786-4.84546c16.90479,0,34.87159,15.56738,34.88526,44.41785 c-0.09326,0.59277-0.3064,1.73621-0.74023,3.37183c-0.13025,0.49146-0.27612,1.01624-0.44971,1.5946 c-0.16089,0.53625-0.34827,1.1189-0.55127,1.72705c-0.80237,2.40479-1.94263,5.34717-3.57983,8.77075 c-0.32007,0.66797-0.03687,1.4707,0.63306,1.79077c0.18701,0.08911,0.38293,0.1311,0.57715,0.1311 c0.50183,0,0.98279-0.28149,1.21362-0.76416c1.97327-4.12598,3.2572-7.57922,4.09875-10.27454 c0.01721,0.01245,0.02832,0.02795,0.04602,0.04028c1.31531,0.91235,2.78247,2.04529,4.3103,3.41309 c0.33325,0.31128,0.66406,0.6167,0.98792,0.9115c1.59302,1.51233,3.23022,3.28113,4.81921,5.34229 C155.74553,434.60886,160.02873,443.31381,161.35136,455.32431z M105.67716,88.87206 c0.11548-0.73267-0.38647-1.42004-1.11914-1.5354c-0.71362-0.10327-1.41833,0.38477-1.53552,1.11914 c-0.00647,0.04102-0.01794,0.11536-0.0321,0.20825l-4.37146-1.17188c-0.23718-0.06335-0.45911-0.15405-0.67371-0.25513 c0.6969-2.23706,1.41736-3.87769,1.85059-4.26196l0.47754-0.41797c0.89355-0.78638,1.79187-1.52576,2.69238-2.24304 l8.44189,2.26294c-1.50562,2.36511-2.94971,4.75916-4.32361,7.1842l-1.47986-0.39661 C105.64713,89.06847,105.67374,88.89452,105.67716,88.87206z M410.00528,151.63622 c-0.29883,1.08984-1.05798,1.9469-2.02698,2.45178c-0.40601,0.21155-0.84436,0.36633-1.30908,0.43933 c-0.43713,0.0686-0.89246,0.0625-1.35156-0.00952c-0.0636-0.01001-0.12634-0.00757-0.18994-0.02051l-74.0675-19.87378 c-0.07031-2.66492-0.59229-5.31323-1.56641-7.82922c0.85242-0.34631,1.81958-0.44788,2.76489-0.19275l72.03931,19.3374 l1.40869,0.37805l1.26782,0.34021c0.04944,0.01331,0.09277,0.03809,0.14148,0.05286 c1.06873,0.32495,1.95557,1.00818,2.49744,1.95312C410.1398,149.58128,410.27969,150.63768,410.00528,151.63622z M327.34146,128.74315c-0.17529-0.53101-0.37744-1.05469-0.59668-1.573c-0.19043-0.44995-0.396-0.89465-0.61914-1.33301 c-0.04614-0.09045-0.08716-0.18274-0.13477-0.27271c-5.17896-9.80981-16.12646-22.08936-32.61353-31.19592 c-0.61279-0.3385-1.21448-0.68274-1.84253-1.01208c-0.62708-0.32886-1.28125-0.64014-1.92358-0.95923 c-3.38892-1.68384-6.9646-3.24634-10.77783-4.61108c-3.85913-1.38159-7.62585-2.38428-11.28906-3.09351 c-0.44165-0.08545-0.88306-0.17114-1.32153-0.2478c-0.44531-0.078-0.88794-0.14905-1.33008-0.21826 c-6.03491-0.94482-11.75633-1.08545-17.08202-0.71875c-0.16113,0.01099-0.32239,0.02197-0.48279,0.03394 c-0.62634,0.04688-1.24646,0.10083-1.86145,0.16113c-0.16785,0.01636-0.33728,0.03101-0.50427,0.04846 c-0.58289,0.06067-1.15918,0.1283-1.73157,0.20007c-0.21606,0.0271-0.43555,0.05054-0.65015,0.0791 c-10.47791,1.39453-19.12134,4.53076-25.16455,6.72339l-1.84326,0.66626c-1.61255,0.57715-3.1864,1.3833-4.68518,2.40112 c-0.30078,0.20288-0.66638,0.27637-1.02307,0.20642c-0.35327-0.07166-0.66455-0.28333-0.86035-0.58765 c-1.85742-2.87158-5.99512-7.7666-12.82959-8.27893c-1.40112-0.10596-2.68677-0.03735-3.86572,0.15381 c-0.43335,0.07031-0.84985,0.15918-1.25403,0.26099c-0.44043,0.11108-0.86536,0.23718-1.27148,0.37988 c-2.39197,0.84106-4.19482,2.17896-5.45361,3.40771c-0.27637,0.271-0.64185,0.39697-1.04065,0.37952 c-0.38477-0.02966-0.73804-0.22205-0.97046-0.52991c-2.83154-3.74805-7.10693-9.40491-13.12537-14.71411 c-0.37341-0.32947-0.75232-0.65784-1.13928-0.98401c-0.37585-0.31702-0.75928-0.63171-1.14819-0.94446 c-3.78821-3.04858-8.19397-5.87793-13.27295-8.03857c-0.47144-0.20044-0.95068-0.39307-1.43384-0.58154 c-0.30334-0.11853-0.60571-0.23779-0.9137-0.35132c-0.20471-0.07544-0.41418-0.14575-0.62109-0.21875 c-0.25134-0.08911-0.50037-0.18054-0.75488-0.26611c-0.45386-0.15259-0.91614-0.29529-1.37976-0.43652 c-2.09985-0.63989-4.29419-1.16833-6.59875-1.54565c-2.92542-0.48083-6.65283-0.28516-11.12854,0.55127 c-0.71973,0.13452-1.45996,0.28662-2.21924,0.45508c-0.73975,0.16406-1.49708,0.34326-2.27418,0.53955 c-7.29785,1.84302-16.24097,5.10278-26.77112,9.76257c-0.50403,0.22302-0.995,0.43445-1.50623,0.66394 c-0.40173,0.18054-0.7406,0.33252-1.02234,0.45728c-0.23962,0.1062-0.43945,0.19348-0.58496,0.25464l-1.04749,0.7572 c-0.552,0.49268-1.07715,1.12219-1.57812,1.84314c-0.49365,0.71045-0.9624,1.51306-1.40479,2.38147 c-3.33398,6.54468-5.18945,16.66736-5.20874,16.79297c-0.02795,0.35144-0.10669,1.03357-0.20984,1.92896 c-1.63611,14.16638-2.2262,31.36108,1.26672,46.1814c0.27051,1.14709,0.57141,2.276,0.89209,3.39221 c0.29199,1.01587,0.59827,2.02246,0.93408,3.00879c1.21191,3.55847,2.72009,6.90894,4.56775,9.96851 c1.37463-1.18091,3.22375-2.15649,5.55432-2.92737c-4.11182-6.65588-6.24707-15.00769-7.24377-23.66309 c-0.15149-1.3158-0.28088-2.63684-0.38257-3.96155c-0.11206-1.45923-0.19763-2.92065-0.25671-4.37842 c-0.43848-10.81433,0.47192-21.40564,1.13354-29.09644c0.20264-2.35815,0.72241-5.18347,1.40625-7.76929 c0.14038-0.53149,0.28906-1.04797,0.44214-1.55298c0.18701-0.61682,0.3811-1.2124,0.58252-1.76941 c0.68701-1.8988,1.44348-3.38757,2.17554-4.01672l0.45117-0.39514c0.38599-0.3396,0.76746-0.64514,1.15137-0.96912 c0.46375-0.39136,0.92883-0.79395,1.3894-1.16309c0.45056-0.36108,0.89612-0.69128,1.34351-1.03174 c7.20068-5.48071,13.95728-8.33179,19.73047-9.7002c0.71399-0.16919,1.41284-0.31787,2.09546-0.44434 c0.68945-0.12769,1.36353-0.23755,2.01904-0.32617c1.917-0.25867,3.69202-0.36841,5.28199-0.36841 c3.08838,0,6.25378,0.26245,9.40698,0.77832c0.95557,0.15649,1.88501,0.34888,2.8009,0.55908 c0.4635,0.10645,0.92249,0.21875,1.3761,0.33813c0.18164,0.04773,0.36255,0.09607,0.5426,0.14587 c0.27625,0.07654,0.55261,0.15271,0.82507,0.23376c0.22192,0.06616,0.44019,0.13672,0.65967,0.20581 c0.47778,0.15039,0.94995,0.30737,1.41626,0.47144c6.64478,2.33813,12.13147,6.03198,16.67725,10.08875 c0.38208,0.34094,0.75806,0.68408,1.12695,1.02954c0.37915,0.35498,0.7522,0.71179,1.11792,1.07019 c3.06738,3.00757,5.66125,6.11084,7.86646,8.93286c0.42163,0.53955,0.82812,1.06738,1.22205,1.5835 c0.57629,0.75525,1.12659,1.4856,1.64624,2.17664c0.00305,0.00415,0.00647,0.00842,0.00952,0.01257l1.03528,1.37646 c2.3175,3.05298,3.37671,7.29541,2.92407,11.47864c-0.02734,0.25208-0.04028,0.50476-0.07861,0.75623 c-0.10425,0.68225-0.21973,1.34351-0.33008,2.0144c-0.14587,0.88745-0.2948,1.76941-0.45142,2.63696 c-3.89478,21.56409-11.11719,36.96777-21.823,46.40381c2.79321,0.44263,5.35229,0.87549,7.59021,1.26978 c10.60608-11.30151,17.7085-28.44641,21.21204-51.3772c0.60864-3.98022,0.19421-8.03418-1.19604-11.72412 c-0.14868-0.3988-0.10156-0.84302,0.12756-1.20142c0.00879-0.01233,0.09973-0.14697,0.10852-0.15918 c0.32654-0.69287,1.29089-2.01318,2.92065-3.0022c0.39282-0.2384,0.82581-0.45483,1.29712-0.64099 c0.39819-0.15735,0.82458-0.28955,1.27954-0.39172c0.62402-0.14001,1.2959-0.22705,2.02783-0.22705 c0.28162,0,0.5719,0.0105,0.86914,0.03662c5.75378,0.43213,8.60437,6.32568,8.9104,6.99719 c0.11194,0.16614,0.16797,0.25012,0.21863,0.33923c0.25012,0.43018,0.24133,0.96191-0.021,1.3833 c-1.03186,1.65454-1.8136,3.36133-2.32422,5.06995c-2.26477,7.57776-4.77954,21.9165-4.4176,37.39026 c0.29565,12.67554,2.68274,30.51721,12.36963,43.52161c8.47314,11.37439,20.89502,17.14221,36.91968,17.14221 c56.46654,0,70.24388-36.03149,78.47752-57.55957l1.12793-2.9364c0.77881-2.00317,1.22766-4.0896,1.36304-6.18616 c0.03174-0.49304,0.05054-0.98657,0.04712-1.47986c-0.00415-0.57971-0.03784-1.15845-0.09058-1.73572 C328.15421,131.79515,327.83817,130.24632,327.34146,128.74315z M321.13785,140.48558l-1.1438,2.97485 c-7.84033,20.50171-19.5415,51.08081-66.83202,53.38464c-1.87573,0.09143-3.80054,0.1438-5.79028,0.1438 c-1.60754,0-3.16748-0.07288-4.68921-0.20349c-11.67236-1.00195-20.8114-5.83289-27.20264-14.41333 c-8.70215-11.68396-10.85669-28.15979-11.13306-39.92603c-0.21509-9.20093,0.62793-17.9458,1.81079-24.95642 c0.12402-0.73499,0.25171-1.44946,0.38245-2.1449c0.61926-3.29565,1.30359-6.13196,1.96545-8.34766 c0.61694-2.06519,1.69458-3.93298,3.0918-5.51636c0.4989-0.56543,1.02502-1.1062,1.60461-1.59021 c1.31738-1.10022,2.82971-1.97693,4.47986-2.56799l1.87122-0.67505c0.39185-0.14233,0.80103-0.29053,1.21289-0.43945 c0.49963-0.18066,1.01428-0.36499,1.5426-0.55298c3.77905-1.34448,8.28101-2.83813,13.36743-4.01392 c0.15332-0.0354,0.30151-0.07361,0.45581-0.1084c0.49646-0.11206,1.00562-0.21606,1.5127-0.32129 c0.1709-0.0354,0.33789-0.07349,0.50989-0.10815c0.48279-0.09717,0.97546-0.1864,1.46765-0.27649 c0.20117-0.03687,0.40027-0.07532,0.60303-0.11096c4.02478-0.70605,8.34424-1.16162,12.91089-1.16162 c3.42747,0,6.84373,0.27173,10.23473,0.78076c0.4447,0.06677,0.88989,0.12866,1.33362,0.2041 c0.44165,0.07507,0.88159,0.16211,1.32214,0.24573c3.60754,0.68518,7.18079,1.64429,10.69446,2.90186 c6.01099,2.15173,11.43677,4.77844,16.30151,7.67859c0.56091,0.33435,1.10583,0.67603,1.65137,1.01758 c0.52637,0.32959,1.05774,0.65601,1.56982,0.9917c12.00708,7.86963,20.10596,17.35107,24.20361,25.11584 C322.40579,132.2014,322.65762,136.57347,321.13785,140.48558z" fill="#d32929"/></g><g id="change3_1"><path d="M38.51652,122.55589c-5.08423-1.30017-10.21106-3.43384-15.00683-6.59253 c-3.9856-2.62561-7.47412-5.6355-10.40564-8.85693C3.0192,96.02464-0.41683,82.41991,5.67509,73.17101 c2.35876-3.58118,6.01025-6.16272,10.48962-7.64197c-0.36524,6.41516,0.03784,12.20215,1.22925,16.68347 c0.19067,0.71704,0.927,1.15417,1.64233,0.95312c0.71692-0.19055,1.14368-0.92517,0.953-1.64221 c-0.03687-0.13867-0.06677-0.2937-0.10205-0.43628c-1.01575-4.11035-1.354-9.82361-0.92297-16.32385 c0.03076-0.46643,0.06104-0.93152,0.09985-1.40576c0.03687-0.44934,0.08118-0.90527,0.12524-1.36096 c1.75562-18.14417,9.25757-41.16003,24.43896-52.64941c12.38892-9.37378,27.39563-8.96118,44.599,1.23462 c0.08423,0.04993,0.16052,0.09888,0.24426,0.1488c0.39575,0.23572,0.76941,0.46887,1.1543,0.70325 c0.38989,0.23755,0.79102,0.47644,1.16992,0.71277c13.63037,8.50183,20.09766,16.16833,22.85535,22.43079 c0.19836,0.45068,0.38098,0.89526,0.54236,1.33118c0.17285,0.46716,0.32446,0.92517,0.45776,1.37488 c1.6084,5.4248,0.45642,9.56128-0.6792,11.94592c-2.58179,5.42688-7.81042,8.1925-10.47656,7.68762 c-1.4856-2.53076-8.36279-13.90967-14.54944-18.61255c-0.59106-0.45117-1.43396-0.33582-1.88171,0.25525 c-0.44946,0.59119-0.33398,1.43408,0.25537,1.88171c5.84863,4.44702,12.73987,15.93127,13.9397,17.97595 c-0.05396,1.40027-0.46973,6.97668-3.54163,11.89062c-0.26501,0.11804-0.51965,0.22668-0.7865,0.34644 c-0.83765,0.3761-1.4043,0.63135-1.64575,0.724c-0.1084,0.04199-0.20972,0.0979-0.3042,0.16443l-1.2854,0.93909 c-1.17749,1.04895-2.23853,2.52417-3.18604,4.2229c-0.98706,0.44824-2.06238,0.82227-3.23901,1.10303 c-1.76074-2.97437-8.40063-13.79224-14.39319-18.34595c-0.59106-0.45117-1.43396-0.33228-1.88171,0.25525 c-0.44946,0.59119-0.33398,1.43408,0.25537,1.88171c5.66821,4.30811,12.31445,15.22583,13.81189,17.75745 c-0.35559,1.39441-2.29651,8.02454-7.9032,12.70837c-0.35767,0.29883-0.72754,0.59094-1.11572,0.87207 c-0.36572,0.26465-0.74866,0.51807-1.14221,0.76379c-1.00146,0.62537-2.08923,1.18811-3.28186,1.65442 c-6.89917,2.68994-14.0835-0.75562-20.20544-5.82959c-9.0033-7.46204-15.7074-18.44775-15.81885-18.63306 c-0.38293-0.63489-1.20837-0.84302-1.84326-0.45825c-0.63489,0.38306-0.84119,1.2085-0.45825,1.84326 c0.00525,0.00879,0.01904,0.03125,0.02588,0.04248c0.6134,1.01416,7.44275,12.12268,16.81921,19.68555 c4.94922,3.99194,10.60559,6.99316,16.42834,6.99255c0.23706,0,0.47534-0.02197,0.71301-0.0321l-0.37964,0.59253 c-4.19897,2.93579-11.46118,5.89343-21.25122,2.03369c-1.76782-0.69702-3.61401-1.60547-5.54382-2.78833 c-0.63306-0.38818-1.45862-0.19055-1.8468,0.44434c-0.38647,0.63135-0.18884,1.4585,0.44421,1.84668 c2.04846,1.25586,4.01611,2.21777,5.91028,2.96301c3.62659,1.427,6.96802,2.01245,9.98145,2.01245 c5.5907,0,10.05298-1.95813,13.20984-4.00928c2.81018-0.05371,7.40906,0.2345,8.83411,2.53198 c-0.2168,5.72327-2.22705,10.18225-4.2688,12.5824C67.33146,123.10411,53.1005,126.28514,38.51652,122.55589z M115.56181,32.36583 c1.61133-2.24329,2.67786-4.91956,2.94836-7.86157c0.80811-8.80542-5.69946-16.62793-14.50488-17.43591 c-4.1438-0.3877-8.05933,0.8667-11.13965,3.20581C105.73222,18.41575,112.38248,25.95555,115.56181,32.36583z M306.17642,407.44662 c-0.53381,3.65735-1.40771,7.59631-2.31531,11.67639c-2.08118,9.34937-4.4386,19.94556-2.85242,29.03259 c1.0249,5.87439-0.63831,11.60181-4.80762,16.56323c-8.13208,9.67468-25.26892,15.92493-43.65794,15.92493 c-1.80298,0-3.57983,0.01221-5.3269,0.02454c-1.68237,0.0105-3.33862,0.02271-4.96509,0.02271 c-12.75781,0-23.6355-0.6925-30.40698-7.41687c-0.35291-0.35046-0.68799-0.72034-1.01404-1.10022 c0.37512,3.05273,1.38464,6.20325,3.68274,8.50134c6.69287,6.69116,17.07739,7.99927,32.75403,7.99927 c17.58629,0,48.28368-3.18469,56.28465-24.51709c1.91846-5.11353,1.57214-10.73083,1.20837-16.68042 c-0.3916-6.35693-0.79395-12.9292,1.52148-19.4978c2.51904-7.146,3.03735-14.15564,2.35107-20.61719L306.17642,407.44662z M235.98076,381.96506c0.54163-0.0293,1.08264-0.07007,1.6239-0.11011c0.86548-0.06396,1.73022-0.14111,2.5946-0.23279 c0.09937-0.01624,0.19922-0.02869,0.29846-0.04517c4.50427-0.74927,8.36572-0.51697,12.41943,1.62476 c1.68909,0.89246,3.09532,2.16455,4.2606,3.63904c-2.95226-8.30762-9.28136-9.27417-9.62242-9.31909 c-0.73267-0.0979-1.25024-0.77124-1.15771-1.50403c0.09448-0.73108,0.74854-1.24158,1.49365-1.16125 c0.12939,0.01575,13.01659,1.81885,13.45555,20.86023c0.3269,14.21631-13.59032,20.14661-13.73021,20.20605 c-0.16785,0.06824-0.34277,0.10144-0.51245,0.10144c-0.52637,0-1.02649-0.31128-1.2417-0.82715 c-0.2832-0.68384,0.04028-1.47083,0.72412-1.75586c0.08936-0.03735,0.53857-0.2312,1.20825-0.5874 c-4.44727,0.68848-8.91235,1.11194-13.37622,1.25989c-0.47461,0.01575-0.94922,0.03333-1.42371,0.04285 c-0.47388,0.00952-0.94763,0.00977-1.42126,0.01306c-0.0835,0.00061-0.16675,0.00183-0.25012,0.00232 c0.25232,0.49146,0.51575,0.97363,0.79028,1.44702c1.24683,2.15063,2.7113,4.11597,4.38904,5.8302l0.18677,0.05518l0.56982,0.16809 l0.04956,0.01465c2.24805,0.66162,4.62292,1.3689,6.901,2.06909c0.48181,0.14819,0.95764,0.29565,1.42859,0.44263 c0.48279,0.15063,0.95715,0.30005,1.42383,0.44849c0.49573,0.15771,0.98096,0.31372,1.45312,0.46753 c1.48718,0.4845,2.83728,0.94556,3.97461,1.36511c1.0376,0.38293,1.90442,0.73242,2.51184,1.02893 c11.23106-2.55859,19.64293-15.65735,19.64293-30.72192c0-0.43701-0.01147-0.87036-0.02515-1.30298 c-0.01941-0.62256-0.04871-1.2417-0.09546-1.85425c-0.04553-0.59473-0.10608-1.18347-0.17651-1.76782 c-1.45654-12.07178-8.17627-21.85327-16.94922-25.12402c-0.70752-0.26367-1.42809-0.48486-2.16063-0.66162 c-0.85181-0.20557-1.71899-0.35059-2.59961-0.43201c-0.55212-0.05103-1.10742-0.0863-1.66919-0.0863 c-9.02429,0-16.88379,6.69629-20.87817,16.51746c1.42188,0.02197,2.84399,0.00745,4.26562-0.04187 C234.89812,382.01474,235.43962,381.99435,235.98076,381.96506z M157.95354,421.90207 c-0.12598-0.08008-0.25452-0.14807-0.3811-0.22595c-0.90857-0.5592-1.82788-1.06628-2.75366-1.51257 c-1.07495,0.3457-3.82227,1.34448-4.97583,2.81445c1.01917,1.07275,2.04175,2.24341,3.04797,3.52539 c5.13416,6.54089,9.81213,15.88867,11.17126,28.87012c0.25684,2.45374,0.40063,5.03125,0.40063,7.75049 c0,2.0658-0.21973,5.02368-1.10547,8.39233c5.09155-4.64233,9.33618-11.89294,10.11426-20.03784 c0.34595-3.62097,0.01392-7.41675-1.24573-11.2417C169.77226,432.78854,164.57121,426.10617,157.95354,421.90207z M129.85747,452.38083c-1.83923-3.41553-3.97559-7.05725-6.48548-10.95483c-5.13623-7.97632-5.00342-14.99097-4.86353-22.4165 c0.14526-7.60059,0.30786-16.21533-4.99988-27.92725c-3.51697-7.76489-10.8866-13.62354-19.23035-15.28662 c-1.58081-0.31482-3.14258-0.47046-4.66406-0.47046c-3.80713,0-7.35376,0.97876-10.32117,2.84106 c-0.047,0.02954-0.0907,0.06396-0.13733,0.09399c0.01831-0.00537,0.03674-0.01038,0.05518-0.01587 c3.77966-1.11597,7.88855-1.25537,11.94226-0.29944c8.29822,1.96045,14.8407,7.8855,17.94666,16.25891 c3.60962,9.72876,3.44165,16.72595,3.27905,23.4939c-0.16797,7.01465-0.32703,13.64111,4.25317,22.54785 c1.12793,2.19482,2.32947,4.47705,3.55713,6.81348c9.37904,17.85046,20.01026,38.08105,14.35792,47.43555 c-0.04492,0.07434-0.10339,0.1366-0.15015,0.20935c1.77905-0.68542,3.39856-1.36829,4.49268-1.85498 c0.67896-1.56238,3.08582-8.66162-1.34265-22.75366C135.97563,465.09518,133.53386,459.20847,129.85747,452.38083z M114.24308,441.47336c-4.89331-9.5155-4.72705-16.47412-4.55054-23.84033c0.15747-6.5144,0.31836-13.24915-3.11108-22.49536 c-2.78943-7.51465-8.63757-12.82935-16.04565-14.57825c-1.61597-0.38123-3.24414-0.56836-4.84778-0.56836 c-3.51672,0-6.91895,0.91492-9.88965,2.62476c-0.57812,0.33276-1.14001,0.69336-1.68225,1.08704 c-0.20374,0.14795-0.40747,0.29443-0.60571,0.45081c-0.41211,0.3252-0.81812,0.65955-1.20459,1.02087c0,0,0,0-0.00171,0 c-0.20251,0.18945-0.38745,0.41138-0.57959,0.62036c-0.15649,0.17041-0.3208,0.32642-0.47034,0.5094 c-0.78625,0.96167-1.46326,2.10681-2.05042,3.36646c-3.05908,6.5636-3.36487,16.6134-0.23999,24.52942 c1.28369,3.24756,3.53796,7.50952,5.92688,12.02319c3.94189,7.45007,8.40845,15.89355,10.48083,23.3103 c5.24304,18.77673,10.28174,30.09912,14.46704,36.93286c0.73804,1.20508,1.44922,2.27014,2.13037,3.21191 c1.15771,1.6001,2.22998,2.84985,3.19592,3.81592c0.89148,0.89148,2.6886,1.87415,6.21741,2.54199 c0.29443,0.05566,0.59302,0.1106,0.91211,0.16162c0.82739,0.13232,1.74097,0.24792,2.7467,0.34326 c1.4884,0.14111,3.18127,0.23682,5.10754,0.27429c0.59399,0.0116,1.20435,0.01904,1.84351,0.01904 c0.18555,0,0.37085,0,0.55798-0.00183l0.4967-0.00171c4.67627,0,7.68604-1.21887,9.20069-3.72498 c4.86865-8.05872-5.83595-28.42908-14.43678-44.79651C116.57951,445.96603,115.37455,443.67502,114.24308,441.47336z M215.20647,456.40427c0.1189,0.5553,0.21277,0.88147,0.21924,0.90308c0.06006,0.19678,0.17188,0.35815,0.302,0.50073 c0.25269,0.27673,0.60376,0.45056,0.9834,0.45056c0.12939,0,0.26062-0.01917,0.39185-0.05774 c0.70996-0.2168,1.10864-0.96704,0.89355-1.67712c-0.0061-0.02014-0.09924-0.34167-0.21338-0.89075 c-0.08838-0.42505-0.18848-0.98999-0.27295-1.66687c-0.06653-0.53357-0.12158-1.1344-0.15247-1.7926 c-0.22168-4.73108,0.8573-12.31958,8.69055-17.58887c0.61548-0.41455,0.77808-1.24878,0.36377-1.86438 c-0.41113-0.61389-1.24524-0.77991-1.86426-0.36365c-10.37561,6.97949-10.30249,17.57617-9.62952,22.39868 C215.01189,455.42685,215.11601,455.98239,215.20647,456.40427z M287.28726,88.32787 c-3.85693-5.87744-8.95581-9.96265-15.08191-11.50879c-0.88293-0.22363-1.77283-0.38904-2.66736-0.50098 c0.01392,0.14917,0.01819,0.30029-0.0188,0.44849l-1.32349,5.31128c3.74402,0.7345,7.59521,1.76562,11.5437,3.17944 C282.36014,86.1953,284.85989,87.23521,287.28726,88.32787z M243.10002,194.12206c1.38721,0.1145,2.8075,0.18066,4.27173,0.18066 c1.98389,0,3.88721-0.06519,5.75391-0.15967c16.3784-3.46545,32.73778-23.2688,39.44664-49.84668 c3.56116-14.10828,3.82483-27.82617,1.37927-39.21362c-5.28369-3.3739-11.3241-6.42896-18.13672-8.86719 c-3.42944-1.22729-6.91724-2.16089-10.43848-2.82153l-4.64697,18.65015c-0.17834,0.71533-0.90588,1.1543-1.61243,0.9812 c-1.88879-0.44775-3.69176-0.81848-5.50877-1.1333c-3.69177-0.64355-8.24231,0.74329-9.48926,5.28674 c-0.5509,2.00415-0.12244,4.46301,1.11755,6.41467c1.01953,1.60547,2.46411,2.64258,4.06958,2.92065 c2.39758,0.41455,4.33716,0.7887,6.10156,1.17871c0.3551,0.07861,0.66283,0.29553,0.8535,0.6051 c0.19067,0.30774,0.24829,0.6803,0.16089,1.03186l-15.59789,62.59961c-0.09277,0.3761-0.34619,0.69434-0.6925,0.87109 c-0.19067,0.0979-0.40051,0.14673-0.61035,0.14673c-0.05811,0-0.1134-0.02539-0.17126-0.03284 c1.05835,0.45154,2.14697,0.8241,3.2666,1.10669C242.77702,194.06175,242.93913,194.08507,243.10002,194.12206z M232.74492,188.64574c0.84265,0.75647,1.71863,1.44189,2.6239,2.06201 C234.57414,190.14793,233.68694,189.46581,232.74492,188.64574z M190.24675,98.02196 c0.01807-0.65698,0.03638-1.31409,0.04114-1.96216c-0.23621,0.27368-0.38806,0.50269-0.45984,0.62085 C189.98137,97.12328,190.11821,97.5714,190.24675,98.02196z M173.6165,56.74022c-0.0011,0.00464-0.00085,0.00964-0.00208,0.0144 l-3.6897,14.80835c6.13672,5.2041,10.59082,10.83301,13.6582,14.86951c1.375-1.12561,3.32837-2.37341,5.84985-3.17224 C187.4113,69.74803,181.88823,59.78514,173.6165,56.74022z M176.50908,98.41637c-0.29993-1.0752-0.5592-2.10193-0.7677-3.05652 c-2.38245-3.16602-5.3418-7.05078-9.04358-10.84595l-1.58801,6.3728c-0.08911,0.35864-0.32178,0.66284-0.64355,0.84473 c-0.32007,0.18359-0.703,0.22388-1.05627,0.11377c-3.0238-0.93579-5.85168-1.55481-8.64441-1.88879 c-1.00708-0.12866-2.07898,0.10022-3.10205,0.62964c-0.50317,0.26038-0.99207,0.59961-1.45776,1.00037 c-0.08069,0.06934-0.16357,0.13281-0.24268,0.2063c-0.2998,0.27795-0.5708,0.58276-0.82715,0.89746 c-1.19153,1.46338-1.89136,3.25757-1.82227,4.82642c0.0542,1.20288,0.32104,2.28296,0.77063,3.23462 c0.29382,0.62195,0.66772,1.18677,1.11902,1.69055c1.33252,1.48743,3.32642,2.44604,5.88037,2.75403 c0.00183,0,0.00183,0,0.00366,0.00171c0.16956,0.01929,0.3269,0.07007,0.46863,0.14697 c0.25879,0.05249,0.57532,0.11536,0.83594,0.16785c0.29028,0.05774,0.52283,0.10486,0.58936,0.12244 c0.00354,0,0.00525,0,0.00867,0.00171c0.86926,0.2168,1.80664,0.4967,2.95215,0.88135 c0.20093,0.06787,0.36426,0.18848,0.50586,0.32935c0.32568,0.32373,0.48669,0.79517,0.36853,1.26917l-12.24329,49.1322 c2.50952,0.32861,4.94312,0.67334,7.26184,1.02063c12.04614-9.47107,19.83948-26.33655,23.59131-50.88098 c-0.43616-1.21448-0.87561-2.47266-1.29822-3.7373C177.53459,101.8745,176.97624,100.09178,176.50908,98.41637z M161.27654,167.16869c0.21777,0.02527,0.4314,0.05005,0.64087,0.07458c0.45776,0.05359,0.89966,0.10559,1.31519,0.15491 c0.14771,0.01758,0.28735,0.0343,0.42944,0.05127c0.59985,0.07178,1.15503,0.13892,1.64966,0.19946 c1.83081,0.224,2.9071,0.3645,2.97925,0.37402c0.06128,0.00867,0.1189,0.01221,0.17847,0.01221 c0.66284,0,1.23987-0.49146,1.3291-1.1665c0.0979-0.73633-0.41968-1.41138-1.1543-1.50757 c-0.12817-0.01697-0.43481-0.05713-0.89368-0.11609c-0.4043-0.05188-0.93152-0.11877-1.56531-0.19775 c-0.04993-0.00623-0.10181-0.01257-0.15308-0.01904c-0.44006-0.05469-0.92554-0.11462-1.45972-0.17957 c-0.12573-0.01526-0.25635-0.03113-0.38696-0.04688c-0.57104-0.06909-1.18701-0.14294-1.84729-0.22095 c-2.54846-0.30078-5.72717-0.66089-9.29529-1.0321c-0.77588-0.08069-1.56995-0.16187-2.37988-0.24304 c-0.83459-0.08374-1.6853-0.16748-2.55066-0.25073c-0.31873-0.03052-0.64075-0.06104-0.96326-0.09155 c-0.44775-0.04236-0.89844-0.08447-1.35254-0.12622c-0.44836-0.04138-0.89941-0.0824-1.35327-0.12317 c-4.34424-0.39001-8.92334-0.74915-13.42749-1.01685c-0.47437-0.0282-0.94775-0.0553-1.41992-0.08142 c-0.10449-0.00574-0.20923-0.01196-0.31348-0.01758c-0.39868-0.02161-0.79565-0.04224-1.19226-0.06213 c-0.15382-0.00769-0.30726-0.01538-0.46082-0.02283c-0.3551-0.01746-0.70972-0.03442-1.06274-0.05029 c-7.34607-0.33203-14.18811-0.35107-19.09802,0.22363c-0.62805,0.07361-1.224,0.15698-1.78577,0.25061 c-0.57275,0.09558-1.10974,0.20154-1.60718,0.31921c-0.30542,0.07214-0.60144,0.14697-0.87646,0.22803 c-0.71179,0.20972-1.11926,0.95825-0.90942,1.66833c0.21167,0.7135,0.96533,1.11755,1.66846,0.9093 c0.79346-0.23389,1.73438-0.42749,2.80029-0.58521c0.6626-0.09802,1.3783-0.18091,2.13306-0.25195 c0.62256-0.05884,1.27454-0.10864,1.95361-0.15039c0.20923-0.0127,0.41772-0.02588,0.63208-0.03711 c3.12451-0.16431,6.77209-0.16479,10.68359-0.05139c1.87671,0.05432,3.81372,0.13501,5.78357,0.23645 c0.53272,0.02734,1.06715,0.05591,1.60401,0.08643c0.03455,0.00195,0.06873,0.00366,0.10339,0.00562 c0.49927,0.02844,0.99963,0.05762,1.50146,0.08838c0.12305,0.00757,0.24634,0.01562,0.36951,0.02344 c0.6676,0.0415,1.33655,0.08496,2.00647,0.13013c2.99817,0.20239,6.00708,0.4397,8.93408,0.6936 c0.44189,0.03833,0.88159,0.0769,1.31921,0.11597c0.45374,0.04053,0.90479,0.0813,1.35339,0.12231 c0.22205,0.02039,0.44385,0.04077,0.66455,0.06116c0.23047,0.02136,0.45923,0.04285,0.68823,0.06433 c0.74219,0.06958,1.47705,0.13965,2.20007,0.21008c3.9198,0.38184,7.526,0.7699,10.55151,1.11169 C159.9528,167.0161,160.63249,167.09398,161.27654,167.16869z M431.77115,322.70529 c-2.7583,2.81494-5.60022,5.47607-8.46582,7.95276c-3.37695,2.91846-6.94849,4.52136-11.39673,4.72058 c-4.29248,0.19238-8.3252-1.90088-11.39673-4.72058c-2.96484-2.72156-4.72058-7.4436-4.72058-11.39661 c0-3.82983,1.7312-8.81311,4.72058-11.39673c1.91406-1.65417,3.77979-3.36401,5.60107-5.11938 c-10.80249-4.25171-21.02881-4.2489-25.46558-0.26636c-2.23499,2.01111-4.76025,6.6543-4.52075,13.12329 c0.00903,0.24097,0.02307,0.48743,0.04028,0.73743c0.02991,0.43347,0.07214,0.87988,0.12988,1.33997 c0.05518,0.4397,0.12476,0.89209,0.20862,1.35498c1.23474,6.81482,5.75891,16.0791,18.78674,26.14575 c0.49329,0.38281,0.62402,1.03345,0.39062,1.58252c-0.04395,0.10315-0.07764,0.20972-0.14917,0.30273 c-0.45483,0.58411-1.2959,0.69434-1.88525,0.24133c-13.9613-10.78906-18.65686-20.88013-19.86646-28.27148 c-30.13989,0.78943-42.90503,27.35547-45.2395,32.90588c-1.41296,3.36475-3.49243,6.44275-6.1803,9.1499 c-1.58264,1.59497-2.32776,3.28784-2.27527,5.17664c0.11279,3.98193,3.74292,7.37805,3.94165,7.56116 c0.03369,0.02148,0.07275,0.02673,0.10522,0.05151c0.20374,0.15649,0.40381,0.30054,0.60547,0.44995 c5.67114,4.19946,10.48877,5.54932,14.31738,3.99561c5.82373-2.36182,8.14441-10.80859,8.82385-13.98877 c0.15881-0.7428,0.22827-1.19946,0.23157-1.22266c0.07178-0.48608,0.40234-0.89722,0.86218-1.06677l5.79041-2.14417 c0.69604-0.25879,1.46899,0.09619,1.72607,0.79224s-0.0979,1.46912-0.79224,1.7262l-5.06458,1.87476 c-0.5575,2.94495-2.96301,12.98938-10.08325,16.28467c-0.0929,0.22107-0.22375,0.42773-0.4325,0.57764 c-0.07007,0.04895-6.95337,5.04187-7.89258,10.85339c-0.10669,0.65918-0.67676,1.12793-1.32385,1.12793 c-0.07166,0-0.14343-0.00525-0.21692-0.01758c-0.73096-0.1189-1.22937-0.80786-1.11035-1.54065 c0.66211-4.09485,3.56677-7.66675,5.89954-9.95752c-3.34534-0.07678-7.04016-1.48145-11.05457-4.22253 c-0.03613,8.06006,2.08923,14.34326,6.34424,18.69031c6.24536,6.37793,15.1394,6.5863,16.323,6.55676 c1.08472-0.24707,12.19458-2.96826,14.67334-10.7854c0.22559-0.70654,0.98462-1.10181,1.68591-0.87451 c0.70654,0.22388,1.09827,0.97937,0.87439,1.68591c-2.44519,7.71155-11.27539,11.07092-15.0564,12.17908 c7.46387,12.7384,22.21362,8.29248,22.86157,8.08826c0.03638-0.01111,0.07471-0.00256,0.11157-0.01038 c1.30005-0.60107,11.85767-5.73291,12.2981-13.89465c0.03857-0.74329,0.69775-1.33606,1.41309-1.26965 c0.74146,0.04028,1.30981,0.67334,1.26965,1.41309c-0.47302,8.74927-9.8446,14.1897-13.02039,15.78833 c0.58447,1.41699,1.99487,3.97534,5.00366,5.66638c4.25671,2.39246,10.21851,2.35217,17.71753-0.12415 c17.21118-5.68896,21.51001-46.44873,22.448-59.4668c-0.84448-1.92871-2.13232-3.51636-3.16785-4.59192 c-1.69348-0.43018-3.43396-0.98254-5.21252-1.66443c-0.6925-0.26587-1.03882-1.04236-0.77295-1.73486 c0.00647-0.01685,0.01672-0.03076,0.02368-0.04724c0.2832-0.66101,1.03369-0.98694,1.71118-0.72571 c1.9364,0.74219,3.82935,1.31812,5.65967,1.73706c8.16992,1.87061,15.06116,0.54321,18.68604-3.82178 C441.47574,343.96066,439.29288,333.05478,431.77115,322.70529z M104.6862,97.14879 c0.13428-1.3916,0.27063-2.65808,0.39746-3.74878c0.05688-0.4884,0.11072-0.93103,0.1626-1.34949 c0.06262-0.50391,0.12048-0.95203,0.17273-1.34473c0.07629-0.57446,0.1405-1.03235,0.18518-1.34119 c0.04297-0.29614,0.06958-0.47009,0.073-0.49255c0.11548-0.73267-0.38647-1.42004-1.11914-1.5354 c-0.71362-0.10327-1.41833,0.38477-1.53552,1.11914c-0.00647,0.04102-0.01794,0.11536-0.0321,0.20825 c-0.03906,0.25647-0.1073,0.71924-0.19336,1.33887c-0.05396,0.38867-0.11353,0.82715-0.18018,1.34277 c-0.26855,2.0752-0.62158,5.13892-0.91821,8.78223c-0.10083,1.23816-0.19434,2.5415-0.27612,3.8999 c-0.07275,1.20386-0.13477,2.44702-0.1842,3.72253c-0.42261,10.90002,0.14026,24.0177,4.13293,32.66711 c0.22559,0.49146,0.71167,0.77991,1.21887,0.77991c0.18884,0,0.38123-0.04016,0.56311-0.12415 c0.67334-0.30957,0.96716-1.10876,0.65588-1.78198c-4.63074-10.0332-4.33215-27.05103-3.44055-38.50879 C104.46891,99.49193,104.57682,98.28026,104.6862,97.14879z M219.02654,164.51646c0.0791,0.17224,0.198,0.30896,0.33081,0.42761 c0.05835,0.05225,0.11353,0.10864,0.17944,0.14941c0.21167,0.13135,0.45752,0.20288,0.70874,0.20288 c0.17603,0,0.35425-0.03857,0.52502-0.11133c0.01257-0.00537,0.02576-0.00708,0.03821-0.01282 c0.00391-0.00183,0.00623-0.00562,0.01025-0.00745c0.66479-0.31348,0.95496-1.10535,0.64551-1.77466 c-0.68188-1.47729-1.25513-3.1084-1.73706-4.84875c-0.00134-0.00476-0.00293-0.00916-0.00415-0.01404 c-0.78955-2.85474-1.32617-6.00977-1.67664-9.28662c-0.03381-0.31641-0.06604-0.63342-0.09644-0.95203 c-0.35632-3.73901-0.47864-7.60876-0.45349-11.36194c0.08447-12.55933,1.80493-23.75964,1.83594-23.95557 c0.11536-0.73291-0.38647-1.42017-1.11938-1.53552c-0.71338-0.10486-1.41821,0.38464-1.5354,1.11926 c-0.20142,1.28467-4.42236,28.74036,0.40088,46.47241C217.61284,160.99083,218.25285,162.84032,219.02654,164.51646z" fill="#fff"/></g><g id="change4_1"><path d="M246.16008,46.65123c15.50731-11.05505,37.24547-8.21594,49.37059,6.46582 c1.09326,1.32385-0.79785,3.23352-1.89941,1.89954c-11.41895-13.82666-31.50537-16.46143-46.11546-6.0459 C246.10417,49.97704,244.76421,47.64622,246.16008,46.65123z M171.38615,37.35716 c3.79541-4.01953,9.82703-5.09521,15.13269-4.48926c6.28406,0.71777,11.57117,4.26294,16.3866,8.11914 c1.33655,1.07031,3.24927-0.8186,1.89941-1.89941c-5.42126-4.34131-11.2168-8.13611-18.28601-8.90589 c-5.99634-0.65295-12.76501,0.75696-17.0321,5.276C168.30022,36.71434,170.19621,38.61729,171.38615,37.35716z M289.94034,235.77293c-9.1709-5.229-5.68896-14.92114-5.53687-15.33032c0.25879-0.69434-0.09265-1.46729-0.78699-1.72778 c-0.68909-0.26245-1.46375,0.0874-1.72607,0.77991c-0.0304,0.07861-1.85754,5.1012-0.20312,10.37439 c-65.13133,53.73192-129.7274,14.58545-130.37401,14.18286c-0.00659-0.00415-0.01428-0.00391-0.021-0.00781 c0.22888-4.48169-1.34241-7.70361-1.44983-7.91626c-0.33398-0.66101-1.13672-0.93213-1.80298-0.59631 c-0.66284,0.33228-0.93042,1.14026-0.59644,1.8031c0.03503,0.06982,3.45581,7.07568-1.56519,14.4436 c-0.41797,0.61206-0.25879,1.448,0.35498,1.86597c0.23096,0.15747,0.49316,0.23267,0.75378,0.23267 c0.4303,0,0.85168-0.20459,1.11218-0.58765c0.98096-1.4397,1.68384-2.8645,2.18115-4.24292 c1.13818-0.53174,2.44946-0.60107,3.63159-0.49316c6.35181,3.24683,19.81958,9.13597,37.74048,11.5006 c4.52954,0.59814,9.51538,0.97766,14.87378,0.97766c21.38721,0,48.68079-6.07445,76.26317-28.59398 c1.15552,2.06531,2.9856,4.05127,5.82227,5.66846c0.20984,0.12061,0.43726,0.17651,0.66284,0.17651 c0.4668,0,0.92163-0.24304,1.16821-0.67847C290.80948,236.96043,290.5856,236.14012,289.94034,235.77293z M206.15764,117.48961 c0.12402-0.73499,0.25171-1.44946,0.38245-2.1449c0.61926-3.29565,1.30359-6.13196,1.96545-8.34766 c0.61694-2.06519,1.69458-3.93298,3.0918-5.51636c0.4989-0.56543,1.02502-1.1062,1.60461-1.59021 c1.31738-1.10022,2.82971-1.97693,4.47986-2.56799l1.87122-0.67505c0.39185-0.14233,0.80103-0.29053,1.21289-0.43945 c0.49963-0.18066,1.01428-0.36499,1.5426-0.55298c3.77905-1.34448,8.28101-2.83813,13.36743-4.01392 c0.15332-0.0354,0.30151-0.07361,0.45581-0.1084c0.49646-0.11206,1.00562-0.21606,1.5127-0.32129 c0.1709-0.0354,0.33789-0.07349,0.50989-0.10815c0.48279-0.09717,0.97546-0.1864,1.46765-0.27649 c0.20117-0.03687,0.40027-0.07532,0.60303-0.11096c4.02478-0.70605,8.34424-1.16162,12.91089-1.16162 c3.42747,0,6.84373,0.27173,10.23473,0.78076c0.4447,0.06677,0.88989,0.12866,1.33362,0.2041 c0.44165,0.07507,0.88159,0.16211,1.32214,0.24573c3.60754,0.68518,7.18079,1.64429,10.69446,2.90186 c6.01099,2.15173,11.43677,4.77844,16.30151,7.67859c0.56091,0.33435,1.10583,0.67603,1.65137,1.01758 c0.52637,0.32959,1.05774,0.65601,1.56982,0.9917c12.00708,7.86963,20.10596,17.35107,24.20361,25.11584 c1.95862,3.71106,2.21045,8.08313,0.69067,11.99524l-1.1438,2.97485c-7.84033,20.50171-19.5415,51.08081-66.83202,53.38464 c-1.87573,0.09143-3.80054,0.1438-5.79028,0.1438c-1.60754,0-3.16748-0.07288-4.68921-0.20349 c-11.67236-1.00195-20.8114-5.83289-27.20264-14.41333c-8.70215-11.68396-10.85669-28.15979-11.13306-39.92603 C204.13176,133.2451,204.97478,124.50023,206.15764,117.48961z M209.45366,114.43712 c-1.47693,7.30432-2.6698,17.29773-2.42053,27.94592c0.26575,11.37451,2.32239,27.26807,10.60132,38.38354 c3.82788,5.13989,8.74634,8.82275,14.69348,11.03906c-5.56506-4.40088-9.9342-11.25757-12.677-20.13989 c-1.22681-3.97217-2.07874-8.21448-2.57214-12.63843c0.53406,1.9635,1.17407,3.81299,1.94775,5.48914 c0.0791,0.17224,0.198,0.30896,0.33081,0.42761c0.05835,0.05225,0.11353,0.10864,0.17944,0.14941 c0.21167,0.13135,0.45752,0.20288,0.70874,0.20288c0.17603,0,0.35425-0.03857,0.52502-0.11133 c0.01257-0.00537,0.02576-0.00708,0.03821-0.01282c0.00391-0.00183,0.00623-0.00562,0.01025-0.00745 c0.66479-0.31348,0.95496-1.10535,0.64551-1.77466c-0.68188-1.47729-1.25513-3.1084-1.73706-4.84875 c-0.00134-0.00476-0.00293-0.00916-0.00415-0.01404c-0.78955-2.85474-1.32617-6.00977-1.67664-9.28662 c-0.03381-0.31641-0.06604-0.63342-0.09644-0.95203c-0.35632-3.73901-0.47864-7.60876-0.45349-11.36194 c0.50806-3.65845,1.21704-7.34912,2.14893-11.04053c2.70337-10.70752,6.95581-20.34351,12.16235-28.35095 c0.51758-0.89099,1.04053-1.74915,1.56848-2.57019c-3.91479,1.04297-7.45605,2.24829-10.6051,3.37646 C221.71294,102.18919,214.09685,109.96519,209.45366,114.43712z M297.01712,107.13609 c1.9989,11.25769,1.55408,24.37476-1.83899,37.81775c-5.70581,22.59753-18.29736,40.4469-32.24609,48.20361 c37.35327-5.76172,47.55371-32.35291,54.5542-50.65894l1.14551-2.98169c0.00171-0.00183,0.00171-0.00183,0.00171-0.00354 c1.23828-3.1864,1.03369-6.74707-0.56128-9.77087C314.40079,122.78783,307.36026,114.39061,297.01712,107.13609z M293.95157,105.08275c-5.28369-3.3739-11.3241-6.42896-18.13672-8.86719c-3.42944-1.22729-6.91724-2.16089-10.43848-2.82153 l-4.64697,18.65015c-0.17834,0.71533-0.90588,1.1543-1.61243,0.9812c-1.88879-0.44775-3.69176-0.81848-5.50877-1.1333 c-3.69177-0.64355-8.24231,0.74329-9.48926,5.28674c-0.5509,2.00415-0.12244,4.46301,1.11755,6.41467 c1.01953,1.60547,2.46411,2.64258,4.06958,2.92065c2.39758,0.41455,4.33716,0.7887,6.10156,1.17871 c0.3551,0.07861,0.66283,0.29553,0.8535,0.6051c0.19067,0.30774,0.24829,0.6803,0.16089,1.03186l-15.59789,62.59961 c-0.09277,0.3761-0.34619,0.69434-0.6925,0.87109c-0.19067,0.0979-0.40051,0.14673-0.61035,0.14673 c-0.05811,0-0.1134-0.02539-0.17126-0.03284c1.05835,0.45154,2.14697,0.8241,3.2666,1.10669 c0.1604,0.04065,0.32251,0.06396,0.4834,0.10095c1.38721,0.1145,2.8075,0.18066,4.27173,0.18066 c1.98389,0,3.88721-0.06519,5.75391-0.15967c16.3784-3.46545,32.73778-23.2688,39.44664-49.84668 C296.13345,130.1881,296.39713,116.4702,293.95157,105.08275z M232.74492,188.64574 c0.84265,0.75647,1.71863,1.44189,2.6239,2.06201C234.57414,190.14793,233.68694,189.46581,232.74492,188.64574z M433.6398,320.76022c8.42212,11.4873,10.72986,23.92017,4.72107,31.1532c-3.11462,3.74768-7.95715,5.65747-13.84387,5.65747 c-0.72949,0-1.48022-0.03992-2.24036-0.09875c-0.20996,5.07312-2.93225,58.45752-24.51501,65.58936 c-4.08008,1.34839-7.77881,2.02344-11.07373,2.02344c-3.38745,0-6.34827-0.71362-8.85962-2.13892 c-3.77393-2.14233-5.48779-5.33911-6.18738-7.11951c-4.28467,0.91809-18.16345,2.70898-25.19739-10.50354 c-2.73682-0.08215-11.25903-0.87622-17.59851-7.35034c-5.12756-5.23779-7.50427-12.83643-7.06873-22.59155 c-1.20154-1.22949-4.25317-4.76562-4.3739-9.03796c-0.07349-2.625,0.95312-5.02966,3.05347-7.14404 c2.44495-2.46228,4.33191-5.25354,5.61023-8.29651c2.44421-5.81934,15.74072-33.5636,47.40979-34.5415 c-0.01404-0.22278-0.02563-0.44312-0.03369-0.65918c-0.27454-7.39746,2.74219-12.82251,5.41101-15.22009 c5.30383-4.76965,17.12134-4.89026,29.34778,0.20496c2.81213-2.83594,5.48877-5.80334,7.99744-8.91309 c2.94482-4.01074,5.573-8.24121,7.69434-12.74048c1.06885-2.81641,1.90344-5.70154,2.45569-8.66187 c0.14014-1.94324,0.12683-3.88733-0.01501-5.83325c-0.36572-1.80957-0.86694-3.58203-1.48145-5.32458 c-1.14331-2.34314-2.48523-4.56871-3.99561-6.69566c-1.73389-2.08252-3.61011-4.06738-5.64673-5.84961 c-1.14575-0.74512-2.33838-1.40942-3.56689-2.01025c-3.35083-1.20947-6.81897-2.03589-10.33252-2.62292 c-3.2981-0.36169-6.6106-0.56824-9.92847-0.60974c-22.80225,45.10716-66.37891,78.8911-120.05786,86.91551 c-8.0376,1.19971-16.03685,1.78381-23.92943,1.78381c-0.60205,0-1.20166-0.01379-1.80273-0.02063 c-1.65063,5.63257-3.46375,11.21729-5.4646,16.73743c-4.36206,12.03528-9.49658,23.72009-15.36499,34.99243 c0.83008,0.06311,1.66064,0.11145,2.49146,0.15125c4.28088-11.30396,13.30225-19.1134,23.71558-19.1134 c2.25439,0,4.44312,0.36731,6.53294,1.05554c4.03967-1.1311,8.28857-1.6156,12.63257-1.38611 c9.91992,0.53174,18.94653,5.02673,25.55151,11.86536c8.13477,6.42383,21.8623,29.69263,13.12769,54.4646 c-2.13367,6.0564-1.74719,12.35205-1.37292,18.44165c0.38293,6.24329,0.745,12.13867-1.37463,17.78906 c-8.56934,22.84692-40.51709,26.25891-58.79942,26.25891c-16.38147,0-27.30286-1.43762-34.6532-8.78613 c-4.12939-4.12927-4.83521-10.23145-4.65552-14.81433c-2.13416-4.37891-3.1864-10.01514-3.1864-17.04956 c0-7.56543,3.98035-16.01941,10.38989-22.05811c4.92297-4.63892,10.82263-7.448,16.98059-8.16357 c-1.47742-1.93225-2.75513-4.06152-3.81848-6.34595c-7.17932-0.16809-14.32727-1.06128-21.3595-2.71533 c-9.09924,13.23657-19.34583,25.70435-30.69067,37.26807c0.01648,5.1886-1.28247,10.45093-3.86401,15.39868 c-2.67126,5.11707-6.46753,9.37354-10.67993,12.13171c-3.08008,7.12195-9.49854,15.01526-22.68628,20.13794 c-2.72351,1.05798-5.49048,1.86304-8.23047,2.44763c-2.2002,0.68396-4.33521,1.18823-5.85474,1.18823 c-0.82788,0-1.6311-0.04688-2.42188-0.11743c-0.61182,0.02539-1.22144,0.04565-1.8208,0.04565 c-3.22449,0-6.25256-0.36792-8.94177-1.08887c-3.38281-0.56335-6.64709-1.58398-8.50818-3.4458 c-4.98584-4.98596-12.58643-16.86401-20.48242-45.13574c-1.99365-7.14062-6.38843-15.44751-10.26733-22.77698 c-2.42395-4.58191-4.71313-8.90857-6.04932-12.29431c-4.41235-11.17688-2.57959-25.81982,4.00488-31.97412h-0.00171 c0.49707-0.4646,1.01953-0.89404,1.55347-1.30615c0.8147-1.44495,1.76245-2.70654,2.84839-3.72168h-0.00183 c0.8739-0.81677,1.81897-1.54102,2.81714-2.18225c0.79236-0.76721,1.63831-1.52063,2.58154-2.25452l0.23792-0.17847 c7.05823-5.40564,15.44043-8.25806,24.25635-8.25806c18.04871,0,37.20887,16.22925,37.55579,46.31396 c0.06201,0.1781,0.09045,0.37061,0.07043,0.5708c-0.00342,0.03735-0.02307,0.21326-0.06396,0.49377 c-0.01221,0.44104-0.04895,0.90271-0.09326,1.37219c-0.03064,0.32471-0.06201,0.6731-0.0791,1.00781 c5.36621-0.68237,11.47217,0.90088,17.24036,4.56567c0.00891,0.00586,0.0177,0.01208,0.02661,0.01782 c4.87219-5.28369,9.5448-10.74707,13.98328-16.40601c1.0238-1.35693,2.03735-2.72095,3.03369-4.09692 c-5.5127-3.21558-10.76782-6.89478-15.76526-11.0249c-10.8175-8.94019-18.98328-20.35437-24.29822-33.28394 c-5.17346-12.58496-5.78699-27.17822-2.12939-40.25427c2.17651-7.78064,5.78857-15.05188,10.35229-21.70264 c-25.45838-21.11267-44.54493-50.05565-53.19752-83.82115c-6.21411,2.05017-12.979,3.39001-20.09106,3.39038 c-0.91284,0-1.82935-0.02271-2.75439-0.06812c-17.3468-0.84644-32.62988-9.30908-45.42798-25.15356 c-18.93774-23.44653-18.06787-52.09375-10.90393-77.16162C0.49894,97.88768-3.55294,82.29881,3.43302,71.69322 c2.88367-4.37585,7.41162-7.44421,12.93994-9.03552c1.76416-19.58179,10.36511-43.89551,25.63428-55.45117 c13.1582-9.95972,29.61304-9.58716,47.59119,1.06323c0.28992,0.17188,0.55579,0.34143,0.84009,0.5127 c3.70129-3.13464,8.6051-4.85083,13.81165-4.38989c10.28149,0.94434,17.87842,10.0769,16.93579,20.35657 c-0.36755,3.99866-1.9873,7.5791-4.41748,10.42151c2.5094,6.91455,1.03809,12.25378-0.37085,15.21289 c-2.85767,6.00732-8.43115,9.5155-12.53564,9.27417c-0.17908,1.93359-0.70776,5.37659-2.24292,8.94531 c11.05127-4.7334,20.33716-7.86328,27.78419-9.36401c24.77844-26.77771,57.66016-44.23169,94.26477-49.70312 c42.57726-6.35864,85.08458,4.2323,119.6942,29.84058c34.25085,25.34253,56.69409,62.38782,63.32275,104.42102l0.9856,0.26453 c1.83105,0.49146,3.34717,1.65088,4.27234,3.26514c0.88489,1.54248,1.11755,3.32446,0.65405,5.01904 c-0.60413,2.20007-2.2959,3.85449-4.37952,4.55396c1.37964,18.25183-0.38745,36.12769-4.86646,53.05225 c5.50891,0.60156,11.03687,1.58716,16.23071,3.39038c8.0791,2.80493,14.92188,6.81958,20.94775,12.94336 c7.28894,7.40723,13.13501,16.36816,16.09241,26.38574C464.07401,277.91428,450.88736,302.43234,433.6398,320.76022z M173.4716,451.47849c0.34595-3.62097,0.01392-7.41675-1.24573-11.2417c-2.45361-7.44824-7.65466-14.13062-14.27234-18.33472 c-0.12598-0.08008-0.25452-0.14807-0.3811-0.22595c-0.90857-0.5592-1.82788-1.06628-2.75366-1.51257 c-1.07495,0.3457-3.82227,1.34448-4.97583,2.81445c1.01917,1.07275,2.04175,2.24341,3.04797,3.52539 c5.13416,6.54089,9.81213,15.88867,11.17126,28.87012c0.25684,2.45374,0.40063,5.03125,0.40063,7.75049 c0,2.0658-0.21973,5.02368-1.10547,8.39233C168.4489,466.87399,172.69353,459.62338,173.4716,451.47849z M158.74358,476.39963 c0.33545-0.67383,0.65491-1.36328,0.94287-2.08179c1.30322-3.25049,2.09009-6.96362,2.09009-11.19385 c0-2.74622-0.15405-5.33813-0.42517-7.79968c-1.32263-12.0105-5.60583-20.71545-10.3385-26.85437 c-1.58899-2.06116-3.2262-3.82996-4.81921-5.34229c-0.32385-0.2948-0.65466-0.60022-0.98792-0.9115 c-1.52783-1.3678-2.995-2.50073-4.3103-3.41309c-0.0177-0.01233-0.02881-0.02783-0.04602-0.04028 c-0.84155,2.69531-2.12549,6.14856-4.09875,10.27454c-0.23083,0.48267-0.71179,0.76416-1.21362,0.76416 c-0.19421,0-0.39014-0.04199-0.57715-0.1311c-0.66992-0.32007-0.95312-1.1228-0.63306-1.79077 c1.63721-3.42358,2.77747-6.36597,3.57983-8.77075c0.203-0.60815,0.39038-1.1908,0.55127-1.72705 c0.17358-0.57837,0.31946-1.10315,0.44971-1.5946c0.43384-1.63562,0.64697-2.77905,0.74023-3.37183 c-0.01367-28.85046-17.98048-44.41785-34.88526-44.41785c-6.49341,0-12.73291,1.66675-18.30786,4.84546 c2.66699-0.35132,5.48291-0.25391,8.34814,0.31885c9.31787,1.85718,17.22607,8.14258,21.15405,16.81152 c5.55603,12.26465,5.38647,21.20117,5.23779,29.08679c-0.13818,7.31018-0.25708,13.62341,4.43677,20.91089 c0.7644,1.18713,1.49585,2.35193,2.19702,3.49585c0.6731,1.09778,1.31324,2.17273,1.93043,3.23096 c0.92468,1.58606,1.77307,3.11658,2.57837,4.61511c3.64404,6.78076,6.11462,12.67847,7.73462,17.7439 c0.40112,1.25439,0.74658,2.45264,1.04993,3.60657c0.23645,0.89893,0.44666,1.76917,0.62952,2.60828 c1.8562,8.5249,1.08215,13.98511,0.25171,16.849c5.00464-2.48816,11.52087-6.82239,15.677-13.76257 C158.05705,477.72885,158.40837,477.07224,158.74358,476.39963z M99.83854,486.46652 c0.73804,1.20508,1.44922,2.27014,2.13037,3.21191c1.15771,1.6001,2.22998,2.84985,3.19592,3.81592 c0.89148,0.89148,2.6886,1.87415,6.21741,2.54199c0.29443,0.05566,0.59302,0.1106,0.91211,0.16162 c0.82739,0.13232,1.74097,0.24792,2.7467,0.34326c1.4884,0.14111,3.18127,0.23682,5.10754,0.27429 c0.59399,0.0116,1.20435,0.01904,1.84351,0.01904c0.18555,0,0.37085,0,0.55798-0.00183l0.4967-0.00171 c4.67627,0,7.68604-1.21887,9.20069-3.72498c4.86865-8.05872-5.83595-28.42908-14.43678-44.79651 c-1.2312-2.34351-2.43616-4.63452-3.56763-6.83618c-4.89331-9.5155-4.72705-16.47412-4.55054-23.84033 c0.15747-6.5144,0.31836-13.24915-3.11108-22.49536c-2.78943-7.51465-8.63757-12.82935-16.04565-14.57825 c-1.61597-0.38123-3.24414-0.56836-4.84778-0.56836c-3.51672,0-6.91895,0.91492-9.88965,2.62476 c-0.57812,0.33276-1.14001,0.69336-1.68225,1.08704c-0.20374,0.14795-0.40747,0.29443-0.60571,0.45081 c-0.41211,0.3252-0.81812,0.65955-1.20459,1.02087c0,0,0,0-0.00171,0c-0.20251,0.18945-0.38745,0.41138-0.57959,0.62036 c-0.15649,0.17041-0.3208,0.32642-0.47034,0.5094c-0.78625,0.96167-1.46326,2.10681-2.05042,3.36646 c-3.05908,6.5636-3.36487,16.6134-0.23999,24.52942c1.28369,3.24756,3.53796,7.50952,5.92688,12.02319 c3.94189,7.45007,8.40845,15.89355,10.48083,23.3103C90.61454,468.31039,95.65324,479.63278,99.83854,486.46652z M137.54692,470.09531c-1.57129-5.00012-4.01306-10.88684-7.68945-17.71448c-1.83923-3.41553-3.97559-7.05725-6.48548-10.95483 c-5.13623-7.97632-5.00342-14.99097-4.86353-22.4165c0.14526-7.60059,0.30786-16.21533-4.99988-27.92725 c-3.51697-7.76489-10.8866-13.62354-19.23035-15.28662c-1.58081-0.31482-3.14258-0.47046-4.66406-0.47046 c-3.80713,0-7.35376,0.97876-10.32117,2.84106c-0.047,0.02954-0.0907,0.06396-0.13733,0.09399 c0.01831-0.00537,0.03674-0.01038,0.05518-0.01587c3.77966-1.11597,7.88855-1.25537,11.94226-0.29944 c8.29822,1.96045,14.8407,7.8855,17.94666,16.25891c3.60962,9.72876,3.44165,16.72595,3.27905,23.4939 c-0.16797,7.01465-0.32703,13.64111,4.25317,22.54785c1.12793,2.19482,2.32947,4.47705,3.55713,6.81348 c9.37904,17.85046,20.01026,38.08105,14.35792,47.43555c-0.04492,0.07434-0.10339,0.1366-0.15015,0.20935 c1.77905-0.68542,3.39856-1.36829,4.49268-1.85498C139.56853,491.28659,141.97539,484.18735,137.54692,470.09531z M250.96916,365.55783c-9.02429,0-16.88379,6.69629-20.87817,16.51746c1.42188,0.02197,2.84399,0.00745,4.26562-0.04187 c0.5415-0.01868,1.08301-0.03906,1.62415-0.06836c0.54163-0.0293,1.08264-0.07007,1.6239-0.11011 c0.86548-0.06396,1.73022-0.14111,2.5946-0.23279c0.09937-0.01624,0.19922-0.02869,0.29846-0.04517 c4.50427-0.74927,8.36572-0.51697,12.41943,1.62476c1.68909,0.89246,3.09532,2.16455,4.2606,3.63904 c-2.95226-8.30762-9.28136-9.27417-9.62242-9.31909c-0.73267-0.0979-1.25024-0.77124-1.15771-1.50403 c0.09448-0.73108,0.74854-1.24158,1.49365-1.16125c0.12939,0.01575,13.01659,1.81885,13.45555,20.86023 c0.3269,14.21631-13.59032,20.14661-13.73021,20.20605c-0.16785,0.06824-0.34277,0.10144-0.51245,0.10144 c-0.52637,0-1.02649-0.31128-1.2417-0.82715c-0.2832-0.68384,0.04028-1.47083,0.72412-1.75586 c0.08936-0.03735,0.53857-0.2312,1.20825-0.5874c-4.44727,0.68848-8.91235,1.11194-13.37622,1.25989 c-0.47461,0.01575-0.94922,0.03333-1.42371,0.04285c-0.47388,0.00952-0.94763,0.00977-1.42126,0.01306 c-0.0835,0.00061-0.16675,0.00183-0.25012,0.00232c0.25232,0.49146,0.51575,0.97363,0.79028,1.44702 c1.24683,2.15063,2.7113,4.11597,4.38904,5.8302l0.18677,0.05518l0.56982,0.16809l0.04956,0.01465 c2.24805,0.66162,4.62292,1.3689,6.901,2.06909c0.48181,0.14819,0.95764,0.29565,1.42859,0.44263 c0.48279,0.15063,0.95715,0.30005,1.42383,0.44849c0.49573,0.15771,0.98096,0.31372,1.45312,0.46753 c1.48718,0.4845,2.83728,0.94556,3.97461,1.36511c1.0376,0.38293,1.90442,0.73242,2.51184,1.02893 c11.23106-2.55859,19.64293-15.65735,19.64293-30.72192c0-0.43701-0.01147-0.87036-0.02515-1.30298 c-0.01941-0.62256-0.04871-1.2417-0.09546-1.85425c-0.04553-0.59473-0.10608-1.18347-0.17651-1.76782 c-1.45654-12.07178-8.17627-21.85327-16.94922-25.12402c-0.70752-0.26367-1.42809-0.48486-2.16063-0.66162 c-0.85181-0.20557-1.71899-0.35059-2.59961-0.43201C252.08623,365.59311,251.53093,365.55783,250.96916,365.55783z M261.56143,365.73972c7.57251,4.29297,13.2854,13.03638,15.12915,23.64258c0.09668,0.55579,0.18262,1.11646,0.25769,1.68201 c0.07678,0.578,0.14221,1.16064,0.1958,1.74817c0.11902,1.30469,0.18713,2.62915,0.18713,3.97437 c0,16.26794-8.78223,29.97778-21.05518,33.17554c1.14185,1.12744,2.35913,2.38989,3.6665,3.81775l-0.9917,0.90759l-0.00024,0.00024 l-0.99133,0.90747c-1.15247-1.25916-2.22545-2.37866-3.23424-3.38745c-1.31323-1.31323-2.51367-2.43188-3.60962-3.37646 c-1.4231-0.51074-3.1626-1.08459-4.9668-1.65698c-0.37744-0.11987-0.7561-0.23877-1.13623-0.35767 c-0.47852-0.14954-0.95459-0.29736-1.42896-0.44336c-0.48438-0.14917-0.96228-0.29553-1.43237-0.43848 c-2.29443-0.69727-4.36084-1.30579-5.59937-1.67041l-1.46899-0.43359l-0.2395-0.23962 c-0.18701-0.1864-0.36353-0.38464-0.54578-0.57629c-6.30078,0.27246-12.32971,2.91431-17.29248,7.59082 c-5.88831,5.5509-9.547,13.25269-9.547,20.10474c0,4.31006,0.40771,8.0354,1.22852,11.21631 c0.25439,0.98572,0.55151,1.91504,0.88599,2.79663c0.33374,0.88013,0.70874,1.70776,1.12292,2.48596 c0.8468,1.59119,1.85608,2.97961,3.04272,4.15833c6.83801,6.79614,19.17432,6.71045,33.46057,6.61426 c1.75244-0.01233,3.53613-0.02454,5.34448-0.02454c17.62828,0,33.95897-5.8761,41.6013-14.96838 c3.69531-4.39648,5.11548-9.23218,4.21655-14.37195c-1.67712-9.61169,0.74316-20.48413,2.87683-30.07654 c1.44629-6.49341,2.81042-12.62488,2.77722-17.60034c-0.0614-9.3689-3.9259-18.06592-10.11133-24.53784 c-0.51929-0.54346-1.06018-1.06555-1.61133-1.57666c-0.32837-0.30444-0.65979-0.60522-0.9989-0.89758 c-5.84155-5.03772-13.25525-8.27332-21.30212-8.70447C267.12589,365.06393,264.30411,365.24875,261.56143,365.73972z M308.63248,407.36203l-2.45605,0.08459c-0.53381,3.65735-1.40771,7.59631-2.31531,11.67639 c-2.08118,9.34937-4.4386,19.94556-2.85242,29.03259c1.0249,5.87439-0.63831,11.60181-4.80762,16.56323 c-8.13208,9.67468-25.26892,15.92493-43.65794,15.92493c-1.80298,0-3.57983,0.01221-5.3269,0.02454 c-1.68237,0.0105-3.33862,0.02271-4.96509,0.02271c-12.75781,0-23.6355-0.6925-30.40698-7.41687 c-0.35291-0.35046-0.68799-0.72034-1.01404-1.10022c0.37512,3.05273,1.38464,6.20325,3.68274,8.50134 c6.69287,6.69116,17.07739,7.99927,32.75403,7.99927c17.58629,0,48.28368-3.18469,56.28465-24.51709 c1.91846-5.11353,1.57214-10.73083,1.20837-16.68042c-0.3916-6.35693-0.79395-12.9292,1.52148-19.4978 C308.80045,420.83322,309.31876,413.82358,308.63248,407.36203z M400.64017,209.68565 c4.474-16.72107,6.25769-34.39221,4.90967-52.43958c-0.31909-0.01965-0.63953-0.05298-0.96082-0.1167l-0.01392-0.00354 c-0.14697-0.02966-0.29395-0.0647-0.4425-0.10315l-73.15979-19.64026c-0.198,2.1521-0.6897,4.28821-1.4895,6.34558 l-1.12622,2.93103c-8.47839,22.17175-22.67017,59.28394-80.98534,59.28394c-16.91992,0-30.06592-6.13147-39.07422-18.2229 c-10.11011-13.57275-12.59521-31.99854-12.90125-45.06409c-0.36902-15.78857,2.20874-30.45605,4.52942-38.22095 c0.5072-1.69995,1.24707-3.38745,2.2019-5.02966c-0.34448-0.70654-2.604-5.01221-6.62463-5.31482 c-1.01892-0.08826-1.87805,0.03369-2.60229,0.2616c0.13171,8.89636-0.97693,18.63733-3.49597,28.61707 c-3.84766,15.23755-10.31396,28.44153-17.87866,37.93982c2.98279,0.55823,4.76233,0.92664,4.82007,0.9386 c0.72583,0.15222,1.19092,0.86401,1.04053,1.58984c-0.14941,0.7052-0.82776,1.15625-1.52869,1.04663 c-0.02039-0.00317-0.04041-0.00195-0.06091-0.0061c-1.82764-0.3811-3.92358-0.79431-6.22131-1.2218 c-0.47034-0.08752-0.94812-0.17542-1.43518-0.26404c-0.00598-0.0011-0.01172-0.0022-0.01758-0.0033 c-0.49365-0.08972-0.99341-0.17981-1.50317-0.27039c-0.0509-0.00903-0.10132-0.01807-0.15234-0.0271 c-0.55066-0.09741-1.11279-0.19543-1.68091-0.29346c-2.54004-0.4386-5.24646-0.88049-8.06714-1.30908 c-0.6521-0.099-1.3103-0.19727-1.97363-0.29468c-0.67554-0.09912-1.35742-0.19727-2.04321-0.29431 c-1.57129-0.22241-3.1665-0.43823-4.77881-0.64551c-0.44604-0.05737-0.89319-0.11414-1.34155-0.17004 c-0.44678-0.05566-0.89417-0.11084-1.34277-0.16504c-5.51086-0.66602-11.14819-1.21216-16.57227-1.5376 c-0.21851-0.01306-0.43701-0.02612-0.65479-0.03857c-0.29945-0.01709-0.59742-0.03296-0.89539-0.04858 c-0.18469-0.00964-0.36938-0.01917-0.55359-0.02832c-0.32092-0.01587-0.64062-0.03076-0.95972-0.04504 c-0.16235-0.0072-0.32434-0.01404-0.48633-0.02087c-7.84692-0.32861-15.05591-0.1228-20.52405,0.94873 c-0.49622,0.09717-0.98108,0.20007-1.44763,0.31177c-0.4856,0.11633-0.94995,0.24292-1.40186,0.37549 c-2.42627,0.71191-4.35376,1.66138-5.63306,2.89404c-0.34888,0.33618-0.64758,0.69434-0.89746,1.07349 c-0.2124,0.32202-0.39404,0.6571-0.53101,1.01123c-0.04883,0.12622-0.08032,0.25195-0.12427,0.37817 c-1.021,2.93005-0.75122,5.81738,0.85181,8.81201c0.26123,0.48828,0.56274,0.97205,0.88538,1.45337 c4.32922,6.45947,14.0155,12.27222,24.95667,17.13818c20.76392,9.23462,46.01856,15.06055,47.63136,15.42676 c0.04102,0.00928,0.06763,0.01538,0.07764,0.01758c0.72388,0.1626,1.18042,0.87964,1.01953,1.60376 c-0.13989,0.62598-0.69434,1.05103-1.30981,1.05103c-0.09802,0-0.19604-0.0105-0.29395-0.03149 c-1.69214-0.37817-28.07129-6.34863-49.5022-16.17346c-10.82373-4.96204-20.37891-10.90735-24.85864-17.61316 c-0.35449-0.53064-0.68494-1.0647-0.97388-1.60474c-2.03564-3.802-2.32593-7.64587-0.86401-11.42688 c0.16467-0.42615,0.37183-0.8335,0.60986-1.22742c-1.21277-1.90503-2.31714-3.94629-3.3064-6.1311 c-0.60217,7.58582-0.65564,15.24902-0.15161,22.94299c0.29077,4.4386,0.75598,8.8866,1.42114,13.33606 c0.80359,5.37708,1.87085,10.65063,3.18518,15.81055c8.46362,33.22693,27.21155,61.71312,52.22376,82.50926 c8.24365,6.854,17.16284,12.87744,26.625,17.95312c0.01245,0.00659,0.0249,0.01282,0.03723,0.01941 c0.00671,0.00354,0.01355,0.00696,0.02014,0.01062c12.79663,6.85742,26.57715,11.98364,40.9834,15.13281 c10.5575,2.30774,21.44922,3.55566,32.54102,3.62793c8.09937,0.05261,16.30296-0.51318,24.55858-1.7478 c52.29956-7.81726,94.84253-40.50415,117.42993-84.24706c-4.83496,0.06653-9.66675,0.43115-14.46094,1.01172 c-6.9519,1.03955-13.94604,2.52344-20.52209,5.01416c-0.41223,0.20056-0.82361,0.40271-1.22717,0.62158 c-7.93726,4.30444-17.19727,1.74731-22.05164-5.78198c-4.61255-7.15454-1.63794-18.02759,5.7821-22.05164 c12.73169-6.90442,28.07007-9.20874,42.2771-10.50378c6.49707-0.59229,13.05127-0.75732,19.5625-0.29395 C398.68619,209.52074,399.66202,209.59911,400.64017,209.68565z M5.67509,73.17101 c-6.09192,9.2489-2.65588,22.85364,7.42895,33.93542c2.93152,3.22144,6.42004,6.23132,10.40564,8.85693 c4.79578,3.15869,9.92261,5.29236,15.00683,6.59253c14.58398,3.72925,28.81494,0.54822,33.854-5.38062 c2.04175-2.40015,4.052-6.85913,4.2688-12.5824c-1.42505-2.29749-6.02393-2.58569-8.83411-2.53198 c-3.15686,2.05115-7.61914,4.00928-13.20984,4.00928c-3.01343,0-6.35486-0.58545-9.98145-2.01245 c-1.89417-0.74524-3.86182-1.70715-5.91028-2.96301c-0.63306-0.38818-0.83069-1.21533-0.44421-1.84668 c0.38818-0.63489,1.21375-0.83252,1.8468-0.44434c1.92981,1.18286,3.776,2.09131,5.54382,2.78833 c9.79004,3.85974,17.05225,0.9021,21.25122-2.03369l0.37964-0.59253c-0.23767,0.01013-0.47595,0.0321-0.71301,0.0321 c-5.82275,0.00061-11.47913-3.00061-16.42834-6.99255c-9.37646-7.56287-16.20581-18.67139-16.81921-19.68555 c-0.00684-0.01123-0.02063-0.03369-0.02588-0.04248c-0.38293-0.63477-0.17664-1.46021,0.45825-1.84326 c0.63489-0.38477,1.46033-0.17664,1.84326,0.45825c0.11145,0.1853,6.81555,11.17102,15.81885,18.63306 c6.12195,5.07397,13.30627,8.51953,20.20544,5.82959c1.19263-0.46631,2.2804-1.02905,3.28186-1.65442 c0.39355-0.24573,0.77649-0.49915,1.14221-0.76379c0.38818-0.28113,0.75806-0.57324,1.11572-0.87207 c5.60669-4.68384,7.54761-11.31396,7.9032-12.70837c-1.49744-2.53162-8.14368-13.44934-13.81189-17.75745 c-0.58936-0.44763-0.70483-1.29053-0.25537-1.88171c0.44775-0.58752,1.29065-0.70642,1.88171-0.25525 c5.99255,4.55371,12.63245,15.37158,14.39319,18.34595c1.17664-0.28076,2.25195-0.65479,3.23901-1.10303 c0.94751-1.69873,2.00854-3.17395,3.18604-4.2229l1.2854-0.93909c0.09448-0.06653,0.1958-0.12244,0.3042-0.16443 c0.24146-0.09265,0.80811-0.3479,1.64575-0.724c0.26685-0.11975,0.52148-0.22839,0.7865-0.34644 c3.0719-4.91394,3.48767-10.49036,3.54163-11.89062c-1.19983-2.04468-8.09106-13.52893-13.9397-17.97595 c-0.58936-0.44763-0.70483-1.29053-0.25537-1.88171c0.44775-0.59106,1.29065-0.70642,1.88171-0.25525 c6.18665,4.70288,13.06384,16.08179,14.54944,18.61255c2.66614,0.50488,7.89478-2.26074,10.47656-7.68762 c1.13562-2.38464,2.2876-6.52112,0.6792-11.94592c-0.1333-0.44971-0.28491-0.90771-0.45776-1.37488 c-0.16138-0.43591-0.34399-0.88049-0.54236-1.33118c-2.75769-6.26245-9.22498-13.92896-22.85535-22.43079 c-0.37891-0.23633-0.78003-0.47522-1.16992-0.71277c-0.38489-0.23438-0.75854-0.46753-1.1543-0.70325 c-0.08374-0.04993-0.16003-0.09888-0.24426-0.1488c-17.20337-10.1958-32.21008-10.6084-44.599-1.23462 C28.44694,20.83653,20.94499,43.8524,19.18937,61.99657c-0.04407,0.45569-0.08838,0.91162-0.12524,1.36096 c-0.03882,0.47424-0.06909,0.93933-0.09985,1.40576c-0.43103,6.50024-0.09277,12.2135,0.92297,16.32385 c0.03528,0.14258,0.06519,0.29761,0.10205,0.43628c0.19067,0.71704-0.23608,1.45166-0.953,1.64221 c-0.71533,0.20105-1.45166-0.23608-1.64233-0.95312c-1.19141-4.48132-1.59448-10.26831-1.22925-16.68347 C11.68534,67.00829,8.03385,69.58983,5.67509,73.17101z M92.86564,10.27415c12.86658,8.1416,19.51685,15.6814,22.69617,22.09167 c1.61133-2.24329,2.67786-4.91956,2.94836-7.86157c0.80811-8.80542-5.69946-16.62793-14.50488-17.43591 C99.86149,6.68065,95.94596,7.93504,92.86564,10.27415z M224.06682,12.1942c-34.82349,5.20434-66.21973,21.43738-90.28979,46.3302 c3.3136-0.4104,6.18921-0.43481,8.5874-0.0437c3.00085,0.49146,5.82446,1.21814,8.49036,2.11719 c7.16479-6.02124,14.79211-8.73193,21.85022-6.95264c10.07178,2.5437,16.83374,13.68726,19.23804,29.02258 c1.35254-0.21936,2.82678-0.30383,4.42908-0.18591c7.15625,0.53687,11.72424,5.08911,14.13062,8.39612 c1.34485-0.8114,2.74048-1.47778,4.16223-1.98499l1.83276-0.66284c7.00159-2.54077,17.4021-6.3147,30.10938-7.34631 c1.14673-0.78442,2.26465-1.45935,3.34106-2.03809c7.45799-4.69177,15.38475-6.52734,22.91478-4.63245 c7.91064,1.99707,14.25537,7.8219,18.62207,16.12012c18.79016,9.52039,31.1842,23.18481,36.88086,33.97534 c0.00049,0.00098,0.00098,0.00208,0.00146,0.00317c1.39551-0.59009,3.00317-0.73657,4.59094-0.30396l70.88025,19.02539 c-6.74951-40.84656-28.71716-76.81543-62.07483-101.49902c-27.57581-20.40186-60.25281-31.11523-93.93199-31.11523 C239.94621,10.41917,232.00822,11.0067,224.06682,12.1942z M406.97452,146.65721l-1.26782-0.34021l-1.40869-0.37805 l-72.03931-19.3374c-0.94531-0.25513-1.91248-0.15356-2.76489,0.19275c0.97412,2.51599,1.49609,5.16431,1.56641,7.82922 l74.0675,19.87378c0.0636,0.01294,0.12634,0.0105,0.18994,0.02051c0.45911,0.07202,0.91443,0.07812,1.35156,0.00952 c0.46472-0.073,0.90308-0.22778,1.30908-0.43933c0.96899-0.50488,1.72815-1.36194,2.02698-2.45178 c0.27441-0.99854,0.13452-2.05493-0.39185-2.97302c-0.54187-0.94495-1.42871-1.62817-2.49744-1.95312 C407.06729,146.6953,407.02396,146.67052,406.97452,146.65721z M95.00919,125.46996 c0.49023,11.27478,2.49927,22.66162,7.88647,30.91553c5.24377-1.22021,12.34937-1.65479,21.34875-1.31836 c-0.28723-0.99341-0.56116-2.0061-0.80603-3.06006c-0.04419-0.1908-0.0802-0.38855-0.12305-0.58057 c-0.91113-3.45825-1.44043-7.24329-1.58008-11.35767c-0.67383-10.33716,0.45496-21.80054,3.36633-33.33411 c0.75159-2.9762,1.60779-5.87024,2.54736-8.6792c0.14294-0.42737,0.28918-0.8512,0.43616-1.27429 c0.14795-0.42578,0.29883-0.84839,0.45068-1.26978c0.93677-2.59814,1.94849-5.11133,3.0271-7.53174 c0.18506-0.41553,0.37036-0.83069,0.55933-1.24048c0.19141-0.41528,0.38562-0.82593,0.58105-1.23535 c2.72974-5.72144,5.82959-10.86401,9.16711-15.28003c-0.45874-0.09106-0.91907-0.17993-1.3877-0.25671 c-3.0116-0.49316-6.03003-0.74329-8.97327-0.74329c-2.62659,0-5.24293,0.27466-7.84522,0.81616 c-1.21216,1.52063-2.40845,3.05811-3.57129,4.62976c-1.52588,2.06213-2.99512,4.15393-4.41211,6.27136 c-0.2627,0.39258-0.51685,0.78906-0.77563,1.18323c-0.25854,0.39368-0.5144,0.78845-0.76904,1.18396 c-1.52051,2.3606-2.97693,4.75146-4.36316,7.17371c-0.22986,0.40173-0.45935,0.80359-0.68555,1.20703 c-0.22571,0.40259-0.44446,0.80823-0.6665,1.21252c-1.42627,2.5957-2.77966,5.22241-4.05237,7.88086 c0.10034-1.29053,0.20825-2.5022,0.31763-3.63367c0.13428-1.3916,0.27063-2.65808,0.39746-3.74878 c0.21704-0.40686,0.44458-0.80933,0.66528-1.21472l-0.50269-0.13477c0.06262-0.50391,0.12048-0.95203,0.17273-1.34473 c0.07629-0.57446,0.1405-1.03235,0.18518-1.34119l1.47986,0.39661c1.3739-2.42505,2.81799-4.81909,4.32361-7.1842l-8.44189-2.26294 c-0.90051,0.71729-1.79883,1.45667-2.69238,2.24304l-0.47754,0.41797c-0.43323,0.38428-1.15369,2.0249-1.85059,4.26196 c0.2146,0.10107,0.43652,0.19177,0.67371,0.25513l4.37146,1.17188c-0.03906,0.25647-0.1073,0.71924-0.19336,1.33887 c-0.05396,0.38867-0.11353,0.82715-0.18018,1.34277l-4.69397-1.25806c-0.24158-0.06494-0.47595-0.14526-0.70569-0.23462 c-0.49805,2.01685-0.91479,4.25708-1.10083,6.42188c-0.48462,5.63745-1.10327,12.87427-1.21826,20.58057 c1.94653-5.68237,4.20972-11.26758,6.80054-16.72754c-0.10083,1.23816-0.19434,2.5415-0.27612,3.8999 c-0.07275,1.20386-0.13477,2.44702-0.1842,3.72253C98.80363,113.54039,96.7266,119.45604,95.00919,125.46996z M119.3632,71.187 c-4.62366,1.50073-9.19385,3.86304-13.68604,7.07275l7.26904,1.94849c1.59521-2.4126,3.25366-4.79431,4.98694-7.13696 C118.40299,72.43626,118.88541,71.81395,119.3632,71.187z M148.57317,157.24852c2.50952,0.32861,4.94312,0.67334,7.26184,1.02063 c12.04614-9.47107,19.83948-26.33655,23.59131-50.88098c-0.43616-1.21448-0.87561-2.47266-1.29822-3.7373 c-0.59351-1.77637-1.15186-3.55908-1.61902-5.2345c-0.29993-1.0752-0.5592-2.10193-0.7677-3.05652 c-2.38245-3.16602-5.3418-7.05078-9.04358-10.84595l-1.58801,6.3728c-0.08911,0.35864-0.32178,0.66284-0.64355,0.84473 c-0.32007,0.18359-0.703,0.22388-1.05627,0.11377c-3.0238-0.93579-5.85168-1.55481-8.64441-1.88879 c-1.00708-0.12866-2.07898,0.10022-3.10205,0.62964c-0.50317,0.26038-0.99207,0.59961-1.45776,1.00037 c-0.08069,0.06934-0.16357,0.13281-0.24268,0.2063c-0.2998,0.27795-0.5708,0.58276-0.82715,0.89746 c-1.19153,1.46338-1.89136,3.25757-1.82227,4.82642c0.0542,1.20288,0.32104,2.28296,0.77063,3.23462 c0.29382,0.62195,0.66772,1.18677,1.11902,1.69055c1.33252,1.48743,3.32642,2.44604,5.88037,2.75403 c0.00183,0,0.00183,0,0.00366,0.00171c0.16956,0.01929,0.3269,0.07007,0.46863,0.14697 c0.25879,0.05249,0.57532,0.11536,0.83594,0.16785c0.29028,0.05774,0.52283,0.10486,0.58936,0.12244 c0.00354,0,0.00525,0,0.00867,0.00171c0.86926,0.2168,1.80664,0.4967,2.95215,0.88135 c0.20093,0.06787,0.36426,0.18848,0.50586,0.32935c0.32568,0.32373,0.48669,0.79517,0.36853,1.26917L148.57317,157.24852z M190.28789,96.0598c-0.23621,0.27368-0.38806,0.50269-0.45984,0.62085c0.15332,0.44263,0.29016,0.89075,0.4187,1.34131 C190.26482,97.36497,190.28313,96.70787,190.28789,96.0598z M169.92473,71.56297 c6.13672,5.2041,10.59082,10.83301,13.6582,14.86951c1.375-1.12561,3.32837-2.37341,5.84985-3.17224 c-2.02148-13.51221-7.54456-23.4751-15.81628-26.52002c-0.0011,0.00464-0.00085,0.00964-0.00208,0.0144L169.92473,71.56297z M268.19571,82.07787c3.74402,0.7345,7.59521,1.76562,11.5437,3.17944c2.62073,0.93799,5.12048,1.97791,7.54785,3.07056 c-3.85693-5.87744-8.95581-9.96265-15.08191-11.50879c-0.88293-0.22363-1.77283-0.38904-2.66736-0.50098 c0.01392,0.14917,0.01819,0.30029-0.0188,0.44849L268.19571,82.07787z M128.58293,62.13841 c-0.73975,0.16406-1.49708,0.34326-2.27418,0.53955c-7.29785,1.84302-16.24097,5.10278-26.77112,9.76257 c-0.50403,0.22302-0.995,0.43445-1.50623,0.66394c-0.40173,0.18054-0.7406,0.33252-1.02234,0.45728 c-0.23962,0.1062-0.43945,0.19348-0.58496,0.25464l-1.04749,0.7572c-0.552,0.49268-1.07715,1.12219-1.57812,1.84314 c-0.49365,0.71045-0.9624,1.51306-1.40479,2.38147c-3.33398,6.54468-5.18945,16.66736-5.20874,16.79297 c-0.02795,0.35144-0.10669,1.03357-0.20984,1.92896c-1.63611,14.16638-2.2262,31.36108,1.26672,46.1814 c0.27051,1.14709,0.57141,2.276,0.89209,3.39221c0.29199,1.01587,0.59827,2.02246,0.93408,3.00879 c1.21191,3.55847,2.72009,6.90894,4.56775,9.96851c1.37463-1.18091,3.22375-2.15649,5.55432-2.92737 c-4.11182-6.65588-6.24707-15.00769-7.24377-23.66309c-0.15149-1.3158-0.28088-2.63684-0.38257-3.96155 c-0.11206-1.45923-0.19763-2.92065-0.25671-4.37842c-0.43848-10.81433,0.47192-21.40564,1.13354-29.09644 c0.20264-2.35815,0.72241-5.18347,1.40625-7.76929c0.14038-0.53149,0.28906-1.04797,0.44214-1.55298 c0.18701-0.61682,0.3811-1.2124,0.58252-1.76941c0.68701-1.8988,1.44348-3.38757,2.17554-4.01672l0.45117-0.39514 c0.38599-0.3396,0.76746-0.64514,1.15137-0.96912c0.46375-0.39136,0.92883-0.79395,1.3894-1.16309 c0.45056-0.36108,0.89612-0.69128,1.34351-1.03174c7.20068-5.48071,13.95728-8.33179,19.73047-9.7002 c0.71399-0.16919,1.41284-0.31787,2.09546-0.44434c0.68945-0.12769,1.36353-0.23755,2.01904-0.32617 c1.917-0.25867,3.69202-0.36841,5.28199-0.36841c3.08838,0,6.25378,0.26245,9.40698,0.77832 c0.95557,0.15649,1.88501,0.34888,2.8009,0.55908c0.4635,0.10645,0.92249,0.21875,1.3761,0.33813 c0.18164,0.04773,0.36255,0.09607,0.5426,0.14587c0.27625,0.07654,0.55261,0.15271,0.82507,0.23376 c0.22192,0.06616,0.44019,0.13672,0.65967,0.20581c0.47778,0.15039,0.94995,0.30737,1.41626,0.47144 c6.64478,2.33813,12.13147,6.03198,16.67725,10.08875c0.38208,0.34094,0.75806,0.68408,1.12695,1.02954 c0.37915,0.35498,0.7522,0.71179,1.11792,1.07019c3.06738,3.00757,5.66125,6.11084,7.86646,8.93286 c0.42163,0.53955,0.82812,1.06738,1.22205,1.5835c0.57629,0.75525,1.12659,1.4856,1.64624,2.17664 c0.00305,0.00415,0.00647,0.00842,0.00952,0.01257l1.03528,1.37646c2.3175,3.05298,3.37671,7.29541,2.92407,11.47864 c-0.02734,0.25208-0.04028,0.50476-0.07861,0.75623c-0.10425,0.68225-0.21973,1.34351-0.33008,2.0144 c-0.14587,0.88745-0.2948,1.76941-0.45142,2.63696c-3.89478,21.56409-11.11719,36.96777-21.823,46.40381 c2.79321,0.44263,5.35229,0.87549,7.59021,1.26978c10.60608-11.30151,17.7085-28.44641,21.21204-51.3772 c0.60864-3.98022,0.19421-8.03418-1.19604-11.72412c-0.14868-0.3988-0.10156-0.84302,0.12756-1.20142 c0.00879-0.01233,0.09973-0.14697,0.10852-0.15918c0.32654-0.69287,1.29089-2.01318,2.92065-3.0022 c0.39282-0.2384,0.82581-0.45483,1.29712-0.64099c0.39819-0.15735,0.82458-0.28955,1.27954-0.39172 c0.62402-0.14001,1.2959-0.22705,2.02783-0.22705c0.28162,0,0.5719,0.0105,0.86914,0.03662 c5.75378,0.43213,8.60437,6.32568,8.9104,6.99719c0.11194,0.16614,0.16797,0.25012,0.21863,0.33923 c0.25012,0.43018,0.24133,0.96191-0.021,1.3833c-1.03186,1.65454-1.8136,3.36133-2.32422,5.06995 c-2.26477,7.57776-4.77954,21.9165-4.4176,37.39026c0.29565,12.67554,2.68274,30.51721,12.36963,43.52161 c8.47314,11.37439,20.89502,17.14221,36.91968,17.14221c56.46654,0,70.24388-36.03149,78.47752-57.55957l1.12793-2.9364 c0.77881-2.00317,1.22766-4.0896,1.36304-6.18616c0.03174-0.49304,0.05054-0.98657,0.04712-1.47986 c-0.00415-0.57971-0.03784-1.15845-0.09058-1.73572c-0.14258-1.56396-0.45862-3.11279-0.95532-4.61597 c-0.17529-0.53101-0.37744-1.05469-0.59668-1.573c-0.19043-0.44995-0.396-0.89465-0.61914-1.33301 c-0.04614-0.09045-0.08716-0.18274-0.13477-0.27271c-5.17896-9.80981-16.12646-22.08936-32.61353-31.19592 c-0.61279-0.3385-1.21448-0.68274-1.84253-1.01208c-0.62708-0.32886-1.28125-0.64014-1.92358-0.95923 c-3.38892-1.68384-6.9646-3.24634-10.77783-4.61108c-3.85913-1.38159-7.62585-2.38428-11.28906-3.09351 c-0.44165-0.08545-0.88306-0.17114-1.32153-0.2478c-0.44531-0.078-0.88794-0.14905-1.33008-0.21826 c-6.03491-0.94482-11.75633-1.08545-17.08202-0.71875c-0.16113,0.01099-0.32239,0.02197-0.48279,0.03394 c-0.62634,0.04688-1.24646,0.10083-1.86145,0.16113c-0.16785,0.01636-0.33728,0.03101-0.50427,0.04846 c-0.58289,0.06067-1.15918,0.1283-1.73157,0.20007c-0.21606,0.0271-0.43555,0.05054-0.65015,0.0791 c-10.47791,1.39453-19.12134,4.53076-25.16455,6.72339l-1.84326,0.66626c-1.61255,0.57715-3.1864,1.3833-4.68518,2.40112 c-0.30078,0.20288-0.66638,0.27637-1.02307,0.20642c-0.35327-0.07166-0.66455-0.28333-0.86035-0.58765 c-1.85742-2.87158-5.99512-7.7666-12.82959-8.27893c-1.40112-0.10596-2.68677-0.03735-3.86572,0.15381 c-0.43335,0.07031-0.84985,0.15918-1.25403,0.26099c-0.44043,0.11108-0.86536,0.23718-1.27148,0.37988 c-2.39197,0.84106-4.19482,2.17896-5.45361,3.40771c-0.27637,0.271-0.64185,0.39697-1.04065,0.37952 c-0.38477-0.02966-0.73804-0.22205-0.97046-0.52991c-2.83154-3.74805-7.10693-9.40491-13.12537-14.71411 c-0.37341-0.32947-0.75232-0.65784-1.13928-0.98401c-0.37585-0.31702-0.75928-0.63171-1.14819-0.94446 c-3.78821-3.04858-8.19397-5.87793-13.27295-8.03857c-0.47144-0.20044-0.95068-0.39307-1.43384-0.58154 c-0.30334-0.11853-0.60571-0.23779-0.9137-0.35132c-0.20471-0.07544-0.41418-0.14575-0.62109-0.21875 c-0.25134-0.08911-0.50037-0.18054-0.75488-0.26611c-0.45386-0.15259-0.91614-0.29529-1.37976-0.43652 c-2.09985-0.63989-4.29419-1.16833-6.59875-1.54565c-2.92542-0.48083-6.65283-0.28516-11.12854,0.55127 C130.08244,61.81786,129.34221,61.96996,128.58293,62.13841z M86.71317,180.23936 c-0.71692-9.97522-0.50452-19.90247,0.60193-29.68384c-4.53491-13.49426-5.55078-31.33508-3.00867-53.34314 c0.09973-0.8623,0.17493-1.51636,0.21155-1.93433c0.01086-0.11401,1.42847-8.23804,4.31396-15.09351 c-0.41943,0.11902-0.84888,0.229-1.29199,0.32642c-0.67969,2.46143-3.1001,9.46436-9.46313,14.2738 c0.38403,1.32361,0.66455,2.58582,0.85889,3.76721c1.53027,9.30908-1.47778,16.78882-4.51904,20.36353 c-4.2793,5.03308-13.00439,7.97632-23.02515,7.97632c-4.33191,0.00085-8.90576-0.55591-13.46838-1.72461 c-3.88904,18.28271-1.39404,33.05884,7.49255,44.06226c7.51831,9.30908,15.50879,14.0625,24.42603,14.53296 C75.59074,184.05736,81.40971,182.52916,86.71317,180.23936z M213.02312,326.37863 c-14.67603-3.23022-28.70886-8.48169-41.73511-15.49536c-1.69226,2.54517-3.21802,5.19263-4.52808,7.96021 c-1.04565,2.79236-1.85547,5.65564-2.40613,8.58435c-0.23792,2.73645-0.24756,5.4762-0.01965,8.21179 c0.56824,3.1062,1.42468,6.1394,2.54126,9.09497c1.64014,3.45508,3.60339,6.73633,5.83826,9.84253 c3.37329,4.10059,7.17004,7.81689,11.28186,11.17627c3.09375,2.27271,6.32129,4.34546,9.66162,6.22241 c3.98096-7.22717,7.62268-14.6438,10.91602-22.22559C207.73796,342.08542,210.54924,334.2861,213.02312,326.37863z M436.29385,350.19601c5.18188-6.23535,2.99902-17.14124-4.52271-27.49072c-2.7583,2.81494-5.60022,5.47607-8.46582,7.95276 c-3.37695,2.91846-6.94849,4.52136-11.39673,4.72058c-4.29248,0.19238-8.3252-1.90088-11.39673-4.72058 c-2.96484-2.72156-4.72058-7.4436-4.72058-11.39661c0-3.82983,1.7312-8.81311,4.72058-11.39673 c1.91406-1.65417,3.77979-3.36401,5.60107-5.11938c-10.80249-4.25171-21.02881-4.2489-25.46558-0.26636 c-2.23499,2.01111-4.76025,6.6543-4.52075,13.12329c0.00903,0.24097,0.02307,0.48743,0.04028,0.73743 c0.02991,0.43347,0.07214,0.87988,0.12988,1.33997c0.05518,0.4397,0.12476,0.89209,0.20862,1.35498 c1.23474,6.81482,5.75891,16.0791,18.78674,26.14575c0.49329,0.38281,0.62402,1.03345,0.39062,1.58252 c-0.04395,0.10315-0.07764,0.20972-0.14917,0.30273c-0.45483,0.58411-1.2959,0.69434-1.88525,0.24133 c-13.9613-10.78906-18.65686-20.88013-19.86646-28.27148c-30.13989,0.78943-42.90503,27.35547-45.2395,32.90588 c-1.41296,3.36475-3.49243,6.44275-6.1803,9.1499c-1.58264,1.59497-2.32776,3.28784-2.27527,5.17664 c0.11279,3.98193,3.74292,7.37805,3.94165,7.56116c0.03369,0.02148,0.07275,0.02673,0.10522,0.05151 c0.20374,0.15649,0.40381,0.30054,0.60547,0.44995c5.67114,4.19946,10.48877,5.54932,14.31738,3.99561 c5.82373-2.36182,8.14441-10.80859,8.82385-13.98877c0.15881-0.7428,0.22827-1.19946,0.23157-1.22266 c0.07178-0.48608,0.40234-0.89722,0.86218-1.06677l5.79041-2.14417c0.69604-0.25879,1.46899,0.09619,1.72607,0.79224 s-0.0979,1.46912-0.79224,1.7262l-5.06458,1.87476c-0.5575,2.94495-2.96301,12.98938-10.08325,16.28467 c-0.0929,0.22107-0.22375,0.42773-0.4325,0.57764c-0.07007,0.04895-6.95337,5.04187-7.89258,10.85339 c-0.10669,0.65918-0.67676,1.12793-1.32385,1.12793c-0.07166,0-0.14343-0.00525-0.21692-0.01758 c-0.73096-0.1189-1.22937-0.80786-1.11035-1.54065c0.66211-4.09485,3.56677-7.66675,5.89954-9.95752 c-3.34534-0.07678-7.04016-1.48145-11.05457-4.22253c-0.03613,8.06006,2.08923,14.34326,6.34424,18.69031 c6.24536,6.37793,15.1394,6.5863,16.323,6.55676c1.08472-0.24707,12.19458-2.96826,14.67334-10.7854 c0.22559-0.70654,0.98462-1.10181,1.68591-0.87451c0.70654,0.22388,1.09827,0.97937,0.87439,1.68591 c-2.44519,7.71155-11.27539,11.07092-15.0564,12.17908c7.46387,12.7384,22.21362,8.29248,22.86157,8.08826 c0.03638-0.01111,0.07471-0.00256,0.11157-0.01038c1.30005-0.60107,11.85767-5.73291,12.2981-13.89465 c0.03857-0.74329,0.69775-1.33606,1.41309-1.26965c0.74146,0.04028,1.30981,0.67334,1.26965,1.41309 c-0.47302,8.74927-9.8446,14.1897-13.02039,15.78833c0.58447,1.41699,1.99487,3.97534,5.00366,5.66638 c4.25671,2.39246,10.21851,2.35217,17.71753-0.12415c17.21118-5.68896,21.51001-46.44873,22.448-59.4668 c-0.84448-1.92871-2.13232-3.51636-3.16785-4.59192c-1.69348-0.43018-3.43396-0.98254-5.21252-1.66443 c-0.6925-0.26587-1.03882-1.04236-0.77295-1.73486c0.00647-0.01685,0.01672-0.03076,0.02368-0.04724 c0.2832-0.66101,1.03369-0.98694,1.71118-0.72571c1.9364,0.74219,3.82935,1.31812,5.65967,1.73706 C425.77774,355.8884,432.66898,354.561,436.29385,350.19601z" fill="inherit"/></g></g></svg>